<svg width="65" height="64" viewBox="0 0 65 64" fill="none" xmlns="http://www.w3.org/2000/svg">
<g clip-path="url(#clip0_238_15422)">
<g clip-path="url(#clip1_238_15422)">
<circle cx="16.3333" cy="16" r="16" fill="#A09FF0"/>
</g>
<path d="M57.7636 30.9113H56.0217V30.3748C56.0217 29.2838 55.1326 28.3962 54.0397 28.3962H52.831C51.7383 28.3962 50.8492 29.2838 50.8492 30.3748V30.9113H46.3176V30.3748C46.3176 29.3585 45.5457 28.5194 44.5567 28.4093V4.38997C44.5567 3.89845 44.1582 3.5 43.6667 3.5H5.03975C4.54823 3.5 4.14978 3.89845 4.14978 4.38997V59.61C4.14978 60.1016 4.54823 60.5 5.03975 60.5H57.7636C59.6289 60.5 61.1465 59.0785 61.1465 57.3316V34.0765C61.1464 32.3312 59.6289 30.9113 57.7636 30.9113ZM52.6292 30.3747C52.6292 30.2669 52.7216 30.1759 52.831 30.1759H54.0397C54.1492 30.1759 54.2417 30.2669 54.2417 30.3747V33.8871C54.2417 33.9949 54.1492 34.0859 54.0397 34.0859H52.831C52.7217 34.0859 52.6292 33.9949 52.6292 33.8871V30.3747ZM50.8491 32.6911V33.8871C50.8491 34.9782 51.7381 35.8658 52.8309 35.8658H54.0396C55.1324 35.8658 56.0216 34.9781 56.0216 33.8871V32.6911H57.7635C58.6473 32.6911 59.3664 33.3127 59.3664 34.0765V37.3364H28.5914V34.0765C28.5914 33.3127 29.3106 32.6911 30.1945 32.6911H31.441V33.8871C31.441 34.9782 32.33 35.8658 33.4229 35.8658H34.6316C35.7243 35.8658 36.6133 34.9781 36.6133 33.8871V32.6911H41.145V33.8871C41.145 34.9782 42.0341 35.8658 43.127 35.8658H44.3355C45.4283 35.8658 46.3175 34.9781 46.3175 33.8871V32.6911H50.8491ZM33.221 33.8871V30.3747C33.221 30.2669 33.3134 30.1759 33.4229 30.1759H34.6316C34.7409 30.1759 34.8334 30.2669 34.8334 30.3747V33.8871C34.8334 33.9949 34.741 34.0859 34.6316 34.0859H33.4229C33.3134 34.0859 33.221 33.9949 33.221 33.8871ZM44.3355 30.176C44.4449 30.176 44.5374 30.267 44.5374 30.3748V33.8873C44.5374 33.995 44.4449 34.086 44.3355 34.086H43.127C43.0176 34.086 42.925 33.995 42.925 33.8873V30.3748C42.925 30.267 43.0176 30.176 43.127 30.176H44.3355ZM5.92972 5.27993H42.7766V28.429C41.8506 28.5949 41.1451 29.4032 41.1451 30.3748V30.9113H36.6134V30.3748C36.6134 29.2838 35.7245 28.3962 34.6317 28.3962H33.423C32.3303 28.3962 31.4411 29.2838 31.4411 30.3748V30.9113H30.1946C28.3292 30.9113 26.8114 32.3312 26.8114 34.0766V57.3317C26.8114 57.8294 26.935 58.3006 27.1543 58.7202H5.92972V5.27993ZM57.7636 58.7201H30.1945C29.3255 58.7201 28.5914 58.0843 28.5914 57.3316V39.1164H59.3666V57.3316C59.3665 58.0972 58.6474 58.7201 57.7636 58.7201ZM37.7589 41.846H33.1893C32.6978 41.846 32.2993 42.2444 32.2993 42.7359V47.3025C32.2993 47.794 32.6978 48.1924 33.1893 48.1924H37.7589C38.2504 48.1924 38.6489 47.794 38.6489 47.3025V42.7359C38.6489 42.2445 38.2504 41.846 37.7589 41.846ZM36.8689 46.4125H34.0793V43.626H36.8689V46.4125ZM46.1849 41.846H41.6184C41.1268 41.846 40.7284 42.2444 40.7284 42.7359V47.3025C40.7284 47.794 41.1268 48.1924 41.6184 48.1924H46.1849C46.6764 48.1924 47.0748 47.794 47.0748 47.3025V42.7359C47.0748 42.2445 46.6764 41.846 46.1849 41.846ZM45.2949 46.4125H42.5084V43.626H45.2949V46.4125ZM37.7589 49.6439H33.1893C32.6978 49.6439 32.2993 50.0424 32.2993 50.5339V55.1004C32.2993 55.5919 32.6978 55.9904 33.1893 55.9904H37.7589C38.2504 55.9904 38.6489 55.5919 38.6489 55.1004V50.5339C38.6489 50.0424 38.2504 49.6439 37.7589 49.6439ZM36.8689 54.2104H34.0793V51.424H36.8689V54.2104ZM46.1849 49.6439H41.6184C41.1268 49.6439 40.7284 50.0424 40.7284 50.5339V55.1004C40.7284 55.5919 41.1268 55.9904 41.6184 55.9904H46.1849C46.6764 55.9904 47.0748 55.5919 47.0748 55.1004V50.5339C47.0748 50.0424 46.6764 49.6439 46.1849 49.6439ZM45.2949 54.2104H42.5084V51.424H45.2949V54.2104ZM54.7718 41.846H50.2023C49.7108 41.846 49.3123 42.2444 49.3123 42.7359V47.3025C49.3123 47.794 49.7108 48.1924 50.2023 48.1924H54.7718C55.2633 48.1924 55.6618 47.794 55.6618 47.3025V42.7359C55.6618 42.2445 55.2633 41.846 54.7718 41.846ZM53.8819 46.4125H51.0923V43.626H53.8819V46.4125ZM54.7718 49.6439H50.2023C49.7108 49.6439 49.3123 50.0424 49.3123 50.5339V55.1004C49.3123 55.5919 49.7108 55.9904 50.2023 55.9904H54.7718C55.2633 55.9904 55.6618 55.5919 55.6618 55.1004V50.5339C55.6618 50.0424 55.2633 49.6439 54.7718 49.6439ZM53.8819 54.2104H51.0923V51.424H53.8819V54.2104ZM9.61227 19.4178V9.85257C9.61227 9.36105 10.0107 8.9626 10.5022 8.9626H20.844C21.3355 8.9626 21.7339 9.36105 21.7339 9.85257C21.7339 10.3441 21.3355 10.7425 20.844 10.7425H11.3922V18.5279H19.9539V15.8195L18.2987 17.3219C18.1287 17.4762 17.9146 17.5529 17.7007 17.5529C17.4727 17.5529 17.245 17.4657 17.0718 17.2927L15.0426 15.2666C14.6948 14.9194 14.6943 14.3558 15.0417 14.0081C15.3887 13.6603 15.9524 13.6598 16.3003 14.007L17.7299 15.4344L22.0255 11.5353C22.3894 11.205 22.952 11.2321 23.2826 11.5961C23.6129 11.96 23.5858 12.5228 23.2218 12.8532L21.7339 14.2038V19.4178C21.7339 19.9093 21.3355 20.3077 20.844 20.3077H10.5022C10.0107 20.3077 9.61227 19.9093 9.61227 19.4178ZM9.61227 36.781V27.219C9.61227 26.7274 10.0107 26.329 10.5022 26.329H20.844C21.3355 26.329 21.7339 26.7274 21.7339 27.219C21.7339 27.7105 21.3355 28.1089 20.844 28.1089H11.3922V35.8911H19.9539V33.1858L18.2987 34.6882C18.1287 34.8426 17.9146 34.9192 17.7007 34.9192C17.4725 34.9192 17.2446 34.8319 17.0713 34.6584L15.0421 32.6292C14.6946 32.2817 14.6946 31.7182 15.0421 31.3707C15.3896 31.0231 15.9533 31.0231 16.3007 31.3707L17.7303 32.8002L22.0255 28.9016C22.3894 28.5712 22.952 28.5983 23.2826 28.9624C23.6129 29.3263 23.5858 29.8891 23.2218 30.2195L21.7339 31.57V36.781C21.7339 37.2726 21.3355 37.671 20.844 37.671H10.5022C10.0107 37.671 9.61227 37.2726 9.61227 36.781ZM23.2829 46.3291C23.6131 46.6931 23.5857 47.2559 23.2215 47.5861L21.7339 48.9354V54.1473C21.7339 54.6388 21.3355 55.0373 20.844 55.0373H10.5022C10.0107 55.0373 9.61227 54.6388 9.61227 54.1473V44.5852C9.61227 44.0937 10.0107 43.6953 10.5022 43.6953H20.844C21.3355 43.6953 21.7339 44.0937 21.7339 44.5852C21.7339 45.0768 21.3355 45.4752 20.844 45.4752H11.3922V53.2572H19.9539V50.5498L18.2984 52.0514C18.1285 52.2056 17.9144 52.2822 17.7007 52.2822C17.4727 52.2822 17.245 52.195 17.0718 52.0219L15.0426 49.9958C14.6948 49.6486 14.6943 49.0851 15.0417 48.7373C15.3887 48.3895 15.9524 48.389 16.3003 48.7364L17.7301 50.164L22.0258 46.2675C22.3897 45.9374 22.9524 45.9648 23.2829 46.3291ZM26.8113 9.85257C26.8113 9.36105 27.2098 8.9626 27.7013 8.9626H39.2737C39.7652 8.9626 40.1636 9.36105 40.1636 9.85257C40.1636 10.3441 39.7652 10.7425 39.2737 10.7425H27.7013C27.2098 10.7425 26.8113 10.3441 26.8113 9.85257ZM26.8113 14.6336C26.8113 14.1421 27.2098 13.7436 27.7013 13.7436H39.2737C39.7652 13.7436 40.1636 14.1421 40.1636 14.6336C40.1636 15.1251 39.7652 15.5236 39.2737 15.5236H27.7013C27.2098 15.5236 26.8113 15.1251 26.8113 14.6336Z" fill="#181818"/>
</g>
<defs>
<clipPath id="clip0_238_15422">
<rect width="64" height="64" fill="white" transform="translate(0.333313)"/>
</clipPath>
<clipPath id="clip1_238_15422">
<rect width="32" height="32" fill="white" transform="translate(0.333313)"/>
</clipPath>
</defs>
</svg>
