<svg width="64" height="64" viewBox="0 0 64 64" fill="none" xmlns="http://www.w3.org/2000/svg">
<g clip-path="url(#clip0_238_15404)">
<g clip-path="url(#clip1_238_15404)">
<circle cx="16" cy="16" r="16" fill="#A09FF0"/>
</g>
<path d="M32.8313 46.7769C33.446 46.7769 33.9446 46.2783 33.9446 45.6636C33.9446 45.0488 33.446 44.5503 32.8313 44.5503H29.1129C28.4982 44.5503 27.9996 45.0488 27.9996 45.6636V54.4886C27.9996 55.1033 28.4982 55.6018 29.1129 55.6018H32.8313C33.446 55.6018 33.9446 55.1033 33.9446 54.4886C33.9446 53.8738 33.446 53.3753 32.8313 53.3753H30.2262V51.1893H32.5572C33.1719 51.1893 33.6705 50.6908 33.6705 50.0761C33.6705 49.4613 33.1719 48.9628 32.5572 48.9628H30.2262V46.7769H32.8313Z" fill="#181818"/>
<path d="M49.0852 50.0352C49.0852 46.9658 46.5881 44.4688 43.5188 44.4688C40.4495 44.4688 37.9524 46.9658 37.9524 50.0352C37.9524 53.1045 40.4495 55.6016 43.5188 55.6016C46.5881 55.6016 49.0852 53.1045 49.0852 50.0352ZM40.179 50.0352C40.179 48.1936 41.6772 46.6953 43.5188 46.6953C45.3604 46.6953 46.8586 48.1936 46.8586 50.0352C46.8586 51.8767 45.3604 53.375 43.5188 53.375C41.6772 53.375 40.179 51.8767 40.179 50.0352Z" fill="#181818"/>
<path d="M20.4345 46.6953C21.0885 46.6953 21.722 46.8847 22.2666 47.2429C22.7801 47.5808 23.4705 47.4382 23.8086 46.9248C24.1465 46.4111 24.0041 45.7209 23.4904 45.3828C22.5815 44.7848 21.5248 44.4688 20.4346 44.4688C17.3653 44.4688 14.8682 46.9658 14.8682 50.0352C14.8682 53.1045 17.3653 55.6016 20.4346 55.6016C21.6612 55.6016 22.7623 55.1983 23.619 54.4354C24.0781 54.0265 24.1189 53.3228 23.71 52.8637C23.3013 52.4047 22.5977 52.3637 22.1382 52.7727C21.6895 53.1724 21.1162 53.375 20.4346 53.375C18.593 53.375 17.0947 51.8767 17.0947 50.0352C17.0947 48.1936 18.5929 46.6953 20.4345 46.6953Z" fill="#181818"/>
<path d="M52.5503 39.5703H51.2155L49.0832 27.9184C48.6475 25.537 46.744 23.7106 44.3468 23.3735L39.2346 22.6546L37.263 20.6849C38.7313 19.2864 39.6492 17.315 39.6492 15.1321V11.1725C39.6491 6.94182 36.2073 3.5 31.9766 3.5C27.7459 3.5 24.3041 6.94182 24.3041 11.1725V15.1321C24.3041 17.3185 25.2247 19.2926 26.6969 20.6914L24.7338 22.6524L19.6062 23.3735C17.209 23.7106 15.3055 25.5371 14.8698 27.9184L12.7377 39.5703H11.4029C8.87386 39.5703 6.81641 41.6278 6.81641 44.1567V55.9135C6.81641 58.4425 8.87386 60.5 11.4028 60.5H26.9668C27.5816 60.5 28.0801 60.0015 28.0801 59.3867C28.0801 58.772 27.5816 58.2734 26.9668 58.2734H11.4028C10.1016 58.2734 9.04297 57.2148 9.04297 55.9136V44.1567C9.04297 42.8555 10.1016 41.7969 11.4028 41.7969H52.5502C53.8514 41.7969 54.91 42.8555 54.91 44.1567V55.9135C54.91 57.2147 53.8514 58.2733 52.5502 58.2733H36.9863C36.3716 58.2733 35.873 58.7719 35.873 59.3866C35.873 60.0014 36.3716 60.4999 36.9863 60.4999H52.5503C55.0793 60.5 57.1367 58.4425 57.1367 55.9136V44.1567C57.1367 41.6278 55.0793 39.5703 52.5503 39.5703ZM46.893 28.3192L48.9519 39.5703H45.5386L44.3164 33.2219C44.2079 32.6584 43.6887 32.2692 43.1175 32.3242C42.5462 32.3786 42.1099 32.8586 42.1099 33.4325V39.5703H35.6491L40.4002 25.0669L44.0367 25.5783C45.4823 25.7817 46.6302 26.883 46.893 28.3192ZM30.6732 39.5703L30.2208 38.1892L31.5424 30.2311C31.6847 30.2936 31.8371 30.3258 31.9898 30.3258C32.1426 30.3258 32.2948 30.2936 32.4372 30.2311L33.7587 38.1892L33.3195 39.5299C33.3151 39.5433 33.3124 39.5568 33.3085 39.5702H30.6732V39.5703ZM35.2564 33.6168L34.3883 28.3885L35.6772 27.0996L37.9473 25.4025L35.2564 33.6168ZM30.5843 26.2328L31.989 24.5441L33.3943 26.2333L31.9896 27.6382L30.5843 26.2328ZM28.3407 27.1381L29.5912 28.3885L28.723 33.6167L26.0363 25.4152L28.3407 27.1381ZM36.8632 23.433L35.0746 24.7701L33.337 22.6815C34.0714 22.5495 34.7697 22.3131 35.416 21.9875L36.8632 23.433ZM31.9766 5.72656C34.923 5.72656 37.3287 8.07881 37.4182 11.004C37.1492 11.0409 36.877 11.0596 36.6031 11.0596C35.171 11.0596 33.7882 10.5397 32.7097 9.59577C32.2899 9.22828 31.663 9.22828 31.2432 9.59577C30.1647 10.5397 28.782 11.0596 27.3498 11.0596C27.076 11.0596 26.8037 11.0409 26.5347 11.0038C26.6246 8.07881 29.0302 5.72656 31.9766 5.72656ZM26.5306 15.1321V13.2449C26.8021 13.2722 27.0756 13.2863 27.3499 13.2863C29.0103 13.2863 30.6224 12.7789 31.9766 11.8426C33.3308 12.7789 34.9428 13.2863 36.6032 13.2863C36.8777 13.2863 37.1511 13.2722 37.4225 13.245V15.1322C37.4225 18.1352 34.9795 20.5782 31.9766 20.5782C28.9736 20.5782 26.5306 18.1351 26.5306 15.1321ZM30.6285 22.6836L28.8923 24.7706L27.1032 23.4329L28.5458 21.9917C29.1934 22.317 29.8928 22.5527 30.6285 22.6836ZM17.0602 28.3192C17.3229 26.8831 18.4708 25.7817 19.9164 25.5784L23.578 25.0635L28.3302 39.5703H21.8695V33.4323C21.8695 32.8584 21.4332 32.3786 20.8619 32.3241C20.292 32.2716 19.7715 32.6583 19.663 33.2218L18.4408 39.5703H15.0012L17.0602 28.3192Z" fill="#181818"/>
<path d="M31.9766 60.5C32.5914 60.5 33.0898 60.0016 33.0898 59.3867C33.0898 58.7719 32.5914 58.2734 31.9766 58.2734C31.3617 58.2734 30.8633 58.7719 30.8633 59.3867C30.8633 60.0016 31.3617 60.5 31.9766 60.5Z" fill="#181818"/>
</g>
<defs>
<clipPath id="clip0_238_15404">
<rect width="64" height="64" fill="white"/>
</clipPath>
<clipPath id="clip1_238_15404">
<rect width="32" height="32" fill="white"/>
</clipPath>
</defs>
</svg>
