<svg width="64" height="64" viewBox="0 0 64 64" fill="none" xmlns="http://www.w3.org/2000/svg">
<g clip-path="url(#clip0_238_15356)">
<g clip-path="url(#clip1_238_15356)">
<circle cx="16" cy="16" r="16" fill="#A09FF0"/>
</g>
<path d="M41 46.3149H23.6328C23.0179 46.3149 22.5195 46.8134 22.5195 47.4282C22.5195 48.0431 23.0179 48.5415 23.6328 48.5415H41C41.6149 48.5415 42.1133 48.0431 42.1133 47.4282C42.1133 46.8134 41.6149 46.3149 41 46.3149Z" fill="#181818"/>
<path d="M41 40.5908H23.6328C23.0179 40.5908 22.5195 41.0892 22.5195 41.7041C22.5195 42.319 23.0179 42.8174 23.6328 42.8174H41C41.6149 42.8174 42.1133 42.319 42.1133 41.7041C42.1133 41.0892 41.6149 40.5908 41 40.5908Z" fill="#181818"/>
<path d="M41 34.8667H23.6328C23.0179 34.8667 22.5195 35.3651 22.5195 35.98C22.5195 36.5948 23.0179 37.0933 23.6328 37.0933H41C41.6149 37.0933 42.1133 36.5948 42.1133 35.98C42.1133 35.3651 41.6149 34.8667 41 34.8667Z" fill="#181818"/>
<path d="M41 29.1426H23.6328C23.0179 29.1426 22.5195 29.641 22.5195 30.2559C22.5195 30.8707 23.0179 31.3691 23.6328 31.3691H41C41.6149 31.3691 42.1133 30.8707 42.1133 30.2559C42.1133 29.641 41.6149 29.1426 41 29.1426Z" fill="#181818"/>
<path d="M41 23.4185H23.6328C23.0179 23.4185 22.5195 23.9169 22.5195 24.5317C22.5195 25.1466 23.0179 25.645 23.6328 25.645H41C41.6149 25.645 42.1133 25.1466 42.1133 24.5317C42.1133 23.9169 41.6149 23.4185 41 23.4185Z" fill="#181818"/>
<path d="M41 17.6943H23.6328C23.0179 17.6943 22.5195 18.1928 22.5195 18.8076C22.5195 19.4225 23.0179 19.9209 23.6328 19.9209H41C41.6149 19.9209 42.1133 19.4225 42.1133 18.8076C42.1133 18.1928 41.6149 17.6943 41 17.6943Z" fill="#181818"/>
<path d="M36.7695 52.0391H27.8633C27.2484 52.0391 26.75 52.5375 26.75 53.1523C26.75 53.7672 27.2484 54.2656 27.8633 54.2656H36.7695C37.3844 54.2656 37.8828 53.7672 37.8828 53.1523C37.8828 52.5375 37.3844 52.0391 36.7695 52.0391Z" fill="#181818"/>
<path d="M52.5781 34.5997C51.3895 34.5997 50.2599 34.8548 49.2383 35.3098V13.0835C49.2383 12.4686 48.7399 11.9702 48.125 11.9702H46.3438V7.73971C46.3438 7.12484 45.8453 6.62643 45.2305 6.62643H33.4297V4.61328C33.4297 3.99842 32.9313 3.5 32.3164 3.5C31.7015 3.5 31.2031 3.99842 31.2031 4.61328V6.62643H19.4023C18.7875 6.62643 18.2891 7.12484 18.2891 7.73971V11.9702H16.5078C15.8929 11.9702 15.3945 12.4686 15.3945 13.0835V47.2616C14.8628 47.1316 14.3116 47.063 13.7507 47.063C11.4198 47.063 9.25556 48.2362 7.97618 50.1588C6.9857 50.3656 6.06802 50.8587 5.34717 51.5795C4.36002 52.5665 3.81641 53.879 3.81641 55.2748C3.81641 56.6708 4.36002 57.9831 5.34706 58.9702C6.32841 59.9516 7.63385 60.4949 9.0269 60.5H48.125C48.7399 60.5 49.2383 60.0016 49.2383 59.3867V53.7782C49.9353 54.0887 50.6825 54.3048 51.4648 54.411V59.3867C51.4648 60.0016 51.9633 60.5 52.5781 60.5C53.193 60.5 53.6914 60.0016 53.6914 59.3867V54.411C57.7091 53.8656 60.8164 50.4149 60.8164 46.25V42.838C60.8164 38.2954 57.1208 34.5997 52.5781 34.5997ZM9.03102 58.2734C8.23368 58.2705 7.48456 57.9588 6.92157 57.3958C6.35491 56.8293 6.04297 56.076 6.04297 55.2748C6.04297 54.4737 6.35491 53.7205 6.92157 53.1539C7.41464 52.6608 8.06769 52.3536 8.7606 52.2888C9.12676 52.2545 9.45239 52.0416 9.63063 51.72C10.4614 50.2209 12.0401 49.2896 13.7508 49.2896C15.4614 49.2896 17.0402 50.2209 17.8709 51.72C18.0492 52.0416 18.3748 52.2545 18.7409 52.2888C19.4337 52.3537 20.0869 52.6608 20.58 53.1539C21.7495 54.3233 21.7495 56.2262 20.58 57.3957C20.019 57.9567 19.2726 58.2684 18.4853 58.2733H9.03102V58.2734ZM47.0117 58.2734H22.7377C24.167 56.2359 23.9735 53.3987 22.1543 51.5795C21.4333 50.8587 20.5156 50.3657 19.5251 50.1588C19.0157 49.3932 18.3657 48.7471 17.621 48.2459V14.1967H27.3065C27.9214 14.1967 28.4198 13.6983 28.4198 13.0835C28.4198 12.4686 27.9214 11.9702 27.3065 11.9702H20.5155V8.85299H44.1171V11.9702H37.3261C36.7112 11.9702 36.2128 12.4686 36.2128 13.0835C36.2128 13.6983 36.7112 14.1967 37.3261 14.1967H47.0116V36.7711C45.3705 38.278 44.3397 40.4397 44.3397 42.838V46.25C44.3397 48.6483 45.3705 50.81 47.0116 52.3169V58.2734H47.0117ZM58.5898 46.25C58.5898 49.1844 56.4759 51.6329 53.6914 52.1567V49.2254L56.0372 46.8796C56.4719 46.4448 56.4719 45.7399 56.0372 45.305C55.6025 44.8704 54.8975 44.8704 54.4627 45.305L53.6914 46.0763V42.7988C53.6914 42.184 53.193 41.6855 52.5781 41.6855C51.9633 41.6855 51.4648 42.184 51.4648 42.7988V44.0028L50.6935 43.2314C50.2587 42.7968 49.5538 42.7968 49.1189 43.2314C48.6842 43.6662 48.6842 44.3711 49.1189 44.806L51.4648 47.1519V52.1567C48.6803 51.6329 46.5664 49.1845 46.5664 46.25V42.838C46.5664 39.5231 49.2632 36.8263 52.5781 36.8263C55.893 36.8263 58.5898 39.5231 58.5898 42.838V46.25Z" fill="#181818"/>
<path d="M32.3164 14.1963C32.6092 14.1963 32.8964 14.0783 33.1035 13.8701C33.3106 13.663 33.4297 13.3758 33.4297 13.083C33.4297 12.7902 33.3106 12.503 33.1035 12.2959C32.8964 12.0888 32.6092 11.9697 32.3164 11.9697C32.0236 11.9697 31.7364 12.0888 31.5293 12.2959C31.3222 12.503 31.2031 12.7902 31.2031 13.083C31.2031 13.3769 31.3222 13.663 31.5293 13.8701C31.7364 14.0783 32.0236 14.1963 32.3164 14.1963Z" fill="#181818"/>
</g>
<defs>
<clipPath id="clip0_238_15356">
<rect width="64" height="64" fill="white"/>
</clipPath>
<clipPath id="clip1_238_15356">
<rect width="32" height="32" fill="white"/>
</clipPath>
</defs>
</svg>
