<svg width="65" height="64" viewBox="0 0 65 64" fill="none" xmlns="http://www.w3.org/2000/svg">
<g clip-path="url(#clip0_238_15461)">
<g clip-path="url(#clip1_238_15461)">
<circle cx="16.3333" cy="16" r="16" fill="#A09FF0"/>
</g>
<path d="M21.0233 26.7598C20.8162 26.5527 20.529 26.4336 20.2362 26.4336C19.9434 26.4336 19.6563 26.5526 19.4491 26.7598C19.242 26.9669 19.1229 27.2541 19.1229 27.5469C19.1229 27.8397 19.242 28.1269 19.4491 28.3338C19.6562 28.5409 19.9434 28.6601 20.2362 28.6601C20.529 28.6601 20.8162 28.541 21.0233 28.3338C21.2304 28.1269 21.3495 27.8397 21.3495 27.5469C21.3495 27.2541 21.2304 26.9669 21.0233 26.7598Z" fill="#181818"/>
<path d="M57.8093 3.5H13.5009C11.6593 3.5 10.1611 4.99825 10.1611 6.83983V25.3202C10.1611 27.1618 11.6593 28.6601 13.5009 28.6601H15.5048C16.1197 28.6601 16.6181 28.1615 16.6181 27.5468C16.6181 26.932 16.1197 26.4335 15.5048 26.4335H13.5009C12.8871 26.4335 12.3876 25.9341 12.3876 25.3202V6.83983C12.3876 6.22597 12.8871 5.72655 13.5009 5.72655H57.8093C58.4232 5.72655 58.9226 6.22597 58.9226 6.83983V25.3202C58.9226 25.9341 58.4232 26.4335 57.8093 26.4335H50.363C50.0677 26.4335 49.7845 26.5508 49.5758 26.7596L45.9098 30.4255L42.2439 26.7596C42.0352 26.5508 41.752 26.4335 41.4567 26.4335H32.7749C32.693 26.2233 32.6005 26.0159 32.4958 25.8124C31.6986 24.2637 30.3418 23.1319 28.6754 22.6252L27.0659 22.1358C26.4992 21.9633 25.8967 22.2652 25.6952 22.8221L23.166 29.8123C22.4646 31.7511 21.081 33.3618 19.2704 34.3478L16.8962 35.6405C16.3127 34.9323 15.4293 34.4799 14.4422 34.4799H7.32835C5.5756 34.4799 4.14972 35.9059 4.14972 37.6587V57.3209C4.1495 59.0738 5.57549 60.4998 7.32824 60.4998H14.4421C15.5502 60.4998 16.5271 59.9294 17.0962 59.0672L18.2322 59.5127C19.9024 60.1679 21.659 60.5 23.4533 60.5H38.4745C40.7283 60.5 42.5619 58.6664 42.5619 56.4126C42.5619 55.6666 42.3601 54.9672 42.0095 54.3646C43.6676 53.8435 44.8738 52.2923 44.8738 50.4644C44.8738 49.6994 44.6621 48.9831 44.2949 48.3703C45.8825 47.8088 47.0231 46.2935 47.0231 44.516C47.0231 42.6646 45.7854 41.0977 44.0943 40.5969C44.4382 39.9984 44.6359 39.3059 44.6359 38.5676C44.6359 36.3138 42.8024 34.4802 40.5485 34.4802H31.6214L32.8698 30.7736C33.1032 30.0807 33.2136 29.3682 33.206 28.6602H40.9956L45.1227 32.7872C45.3401 33.0045 45.625 33.1133 45.9098 33.1133C46.1947 33.1133 46.4797 33.0045 46.697 32.7872L50.8242 28.6601H57.8093C59.6509 28.6601 61.1492 27.1618 61.1492 25.3202V6.83983C61.1492 4.99825 59.6509 3.5 57.8093 3.5ZM15.3943 57.321C15.3941 57.8461 14.9671 58.2732 14.4421 58.2732H7.32824C6.80321 58.2732 6.37616 57.8461 6.37616 57.321V37.6588C6.37616 37.1338 6.80321 36.7066 7.32824 36.7066H9.77188V50.4134C9.77188 51.0281 10.2703 51.5266 10.8852 51.5266C11.5 51.5266 11.9984 51.0281 11.9984 50.4134V36.7066H14.4421C14.8579 36.7066 15.2113 36.975 15.3408 37.3473C15.3501 37.4012 15.3634 37.4546 15.381 37.5075C15.3889 37.5569 15.3943 37.6071 15.3943 37.6588V57.321ZM40.5486 36.7065V36.7066C41.5747 36.7066 42.4095 37.5413 42.4095 38.5674C42.4095 39.5936 41.5747 40.4284 40.5486 40.4284H34.509C33.8941 40.4284 33.3957 40.9269 33.3957 41.5417C33.3957 42.1564 33.8941 42.6549 34.509 42.6549L42.9358 42.6552C43.9619 42.6552 44.7967 43.4899 44.7967 44.516C44.7967 45.5421 43.9619 46.377 42.9358 46.377H34.509C33.8941 46.377 33.3957 46.8755 33.3957 47.4902C33.3957 48.105 33.8941 48.6035 34.509 48.6035H40.7865C41.8127 48.6035 42.6474 49.4383 42.6474 50.4644C42.6474 51.4905 41.8127 52.3252 40.7865 52.3252H34.509C33.8941 52.3252 33.3957 52.8237 33.3957 53.4385C33.3957 54.0532 33.8941 54.5518 34.509 54.5518H38.4746C39.5007 54.5518 40.3354 55.3866 40.3354 56.4127C40.3354 57.4388 39.5007 58.2736 38.4746 58.2736H23.4533C21.9384 58.2736 20.4553 57.993 19.0451 57.44L17.6207 56.8814V37.7812L20.335 36.3033C22.624 35.0568 24.3728 33.0208 25.2596 30.5699L27.4292 24.5736L28.0277 24.7555C29.1132 25.0855 29.9969 25.8228 30.5161 26.8314C31.0354 27.84 31.1219 28.9877 30.7597 30.0628L29.0166 35.2379C28.9022 35.5776 28.9584 35.9517 29.1675 36.2427C29.3767 36.5338 29.7131 36.7065 30.0717 36.7065H40.5486Z" fill="#181818"/>
<path d="M56.0504 14.2963C55.8395 13.6479 55.2894 13.1842 54.6145 13.0864L52.6453 12.8008L51.7642 11.0168C51.4622 10.4055 50.8514 10.0259 50.1696 10.0259C50.1696 10.0259 50.1693 10.0259 50.1692 10.0259C49.4873 10.0261 48.8763 10.4061 48.5747 11.0176L47.6946 12.8022L45.7254 13.0888C45.0507 13.1871 44.5007 13.651 44.2902 14.2996C44.0797 14.9481 44.2522 15.6467 44.7407 16.1226L46.1659 17.5111L45.8301 19.4724C45.715 20.1446 45.9861 20.8109 46.538 21.2116C46.8497 21.438 47.2142 21.5529 47.5814 21.5529C47.8641 21.5529 48.1485 21.4846 48.4111 21.3465L50.1722 20.42L51.9337 21.3455C52.5373 21.6625 53.255 21.6105 53.8066 21.2095C54.3581 20.8085 54.629 20.142 54.5135 19.4699L54.1766 17.5089L55.6013 16.1195C56.089 15.6433 56.2612 14.9447 56.0504 14.2963ZM52.4531 16.0794C52.0339 16.4881 51.843 17.0767 51.9421 17.6537L52.1651 18.952L50.9985 18.3391C50.4801 18.0672 49.8615 18.0672 49.3437 18.3397L48.1777 18.9531L48.4001 17.6547C48.4989 17.0775 48.3076 16.489 47.8882 16.0805L46.9445 15.1612L48.2482 14.9714C48.8277 14.8871 49.3281 14.5233 49.5869 13.9983L50.1697 12.8168L50.7531 13.9979C51.0124 14.5228 51.513 14.8863 52.0924 14.9704L53.3961 15.1594L52.4531 16.0794Z" fill="#181818"/>
<path d="M41.888 14.2963C41.6771 13.6479 41.127 13.1844 40.4521 13.0864L38.483 12.8008L37.6018 11.0168C37.2999 10.4055 36.689 10.0259 36.0073 10.0259C36.0072 10.0259 36.0069 10.0259 36.0068 10.0259C35.3249 10.0261 34.7139 10.4061 34.4123 11.0177L33.5322 12.8022L31.5631 13.0888C30.8883 13.1871 30.3383 13.651 30.1278 14.2996C29.9173 14.9481 30.0899 15.6467 30.5784 16.1226L32.0036 17.5111L31.6677 19.4724C31.5526 20.1446 31.8239 20.811 32.3756 21.2116C32.6872 21.438 33.0518 21.5529 33.4189 21.5529C33.7017 21.5529 33.9859 21.4846 34.2485 21.3465L36.0096 20.42L37.7713 21.3455C38.375 21.6625 39.0924 21.6105 39.6441 21.2095C40.1956 20.8085 40.4665 20.142 40.351 19.4699L40.0142 17.5089L41.4388 16.1195C41.9268 15.6433 42.099 14.9448 41.888 14.2963ZM38.2907 16.0794C37.8716 16.4881 37.6806 17.0767 37.7797 17.6537L38.0027 18.952L36.8361 18.3392C36.3176 18.067 35.699 18.0673 35.1812 18.3397L34.0153 18.9531L34.2376 17.6547C34.3365 17.0775 34.1451 16.489 33.7257 16.0805L32.782 15.1612L34.0856 14.9714C34.665 14.8871 35.1654 14.5234 35.4246 13.9982L36.0073 12.8166L36.5905 13.9977C36.8497 14.5227 37.3504 14.8863 37.9299 14.9704L39.2337 15.1594L38.2907 16.0794Z" fill="#181818"/>
<path d="M27.7257 14.2963C27.5147 13.6479 26.9646 13.1842 26.2898 13.0864L24.3206 12.8008L23.4395 11.0168C23.1376 10.4055 22.5267 10.0259 21.8449 10.0259C21.8448 10.0259 21.8446 10.0259 21.8445 10.0259C21.1626 10.0261 20.5515 10.4061 20.2499 11.0177L19.3699 12.8022L17.4007 13.0888C16.7259 13.1871 16.176 13.6512 15.9654 14.2997C15.7549 14.9482 15.9275 15.6468 16.4159 16.1226L17.8412 17.5111L17.5053 19.4724C17.3902 20.1446 17.6615 20.811 18.2132 21.2116C18.5248 21.438 18.8894 21.5529 19.2565 21.5529C19.5392 21.5529 19.8235 21.4846 20.0861 21.3465L21.8472 20.42L23.6087 21.3455C24.2123 21.6625 24.9299 21.6105 25.4816 21.2095C26.0331 20.8085 26.3039 20.142 26.1885 19.4699L25.8516 17.5089L27.2763 16.1195C27.7645 15.6433 27.9366 14.9448 27.7257 14.2963ZM24.1284 16.0794C23.7092 16.4881 23.5183 17.0767 23.6174 17.6537L23.8404 18.952L22.6738 18.3392C22.1554 18.067 21.5366 18.0673 21.0189 18.3397L19.853 18.9531L20.0754 17.6544C20.174 17.0774 19.9827 16.4891 19.5634 16.0805L18.6197 15.1612L19.9233 14.9714C20.5027 14.8871 21.0031 14.5234 21.2623 13.9982L21.8449 12.8166L22.4282 13.9977C22.6874 14.5227 23.1881 14.8863 23.7676 14.9704L25.0714 15.1594L24.1284 16.0794Z" fill="#181818"/>
<path d="M10.8851 53.3032C10.2702 53.3032 9.77179 53.8017 9.77179 54.4165V54.4339C9.77179 55.0486 10.2702 55.5471 10.8851 55.5471C11.4999 55.5471 11.9983 55.0486 11.9983 54.4339V54.4165C11.9983 53.8017 11.4999 53.3032 10.8851 53.3032Z" fill="#181818"/>
</g>
<defs>
<clipPath id="clip0_238_15461">
<rect width="64" height="64" fill="white" transform="translate(0.333313)"/>
</clipPath>
<clipPath id="clip1_238_15461">
<rect width="32" height="32" fill="white" transform="translate(0.333313)"/>
</clipPath>
</defs>
</svg>
