<svg width="65" height="64" viewBox="0 0 65 64" fill="none" xmlns="http://www.w3.org/2000/svg">
<g clip-path="url(#clip0_238_15434)">
<g clip-path="url(#clip1_238_15434)">
<circle cx="16.6666" cy="16" r="16" fill="#A09FF0"/>
</g>
<path d="M55.5288 41.3706L51.8133 40.4829V39.1778C53.8655 37.9654 55.2459 35.7315 55.2459 33.1801V28.2541C55.2459 24.4152 52.1226 21.292 48.2836 21.292H47.5137C45.464 21.292 43.6188 22.1827 42.3437 23.5969C41.1087 19.5997 37.379 16.687 32.9815 16.687C28.5841 16.687 24.8543 19.5995 23.6194 23.5969C22.3442 22.1827 20.4991 21.292 18.4494 21.292H17.6795C13.8405 21.292 10.7171 24.4152 10.7171 28.2541V33.1801C10.7171 35.7314 12.0974 37.9654 14.1497 39.1778V40.4829L10.4342 41.3706C6.93025 42.2078 4.48303 45.3084 4.48303 48.9109V52.2621C4.48303 52.8769 4.98156 53.3753 5.5962 53.3753H14.5873C14.531 53.8141 14.5019 54.2609 14.5019 54.7134V58.2735H7.82266C7.20791 58.2735 6.70949 58.772 6.70949 59.3867C6.70949 60.0014 7.20802 60.4998 7.82266 60.4998H58.1402C58.7549 60.4998 59.2534 60.0013 59.2534 59.3867C59.2534 58.7719 58.7548 58.2735 58.1402 58.2735H51.4609V54.7188C51.4609 54.2642 51.4317 53.8158 51.3749 53.3754H60.3666C60.9814 53.3754 61.4798 52.8769 61.4798 52.2622V48.911C61.4799 45.3084 59.0326 42.2077 55.5288 41.3706ZM42.778 28.2541C42.7779 25.6428 44.9024 23.5183 47.5138 23.5183H48.2837C50.8952 23.5183 53.0196 25.6428 53.0196 28.2541V28.5396C51.4132 28.52 49.8554 28.0466 48.5084 27.1652C48.1381 26.9228 47.6595 26.9228 47.2893 27.1652C45.9424 28.0467 44.3846 28.5201 42.7781 28.5396V28.2541H42.778ZM42.7779 32.2721V30.7663C44.5803 30.7489 46.335 30.2795 47.8986 29.3988C49.4622 30.2796 51.217 30.7489 53.0194 30.7663V33.1802C53.0194 35.7916 50.8949 37.9161 48.2835 37.9161H47.5136C44.9021 37.9161 42.7777 35.7916 42.7777 33.1802V32.2721H42.7779ZM44.9129 45.0855C44.4606 44.9075 43.992 44.7576 43.5074 44.6418L39.9694 43.7965C40.2319 43.6886 40.5032 43.6 40.782 43.5332L44.2985 42.6904L44.9129 45.0855ZM43.9914 39.1821V40.4747L40.2631 41.3681C39.4569 41.5612 38.6932 41.8805 37.9967 42.3111V40.6842C39.5225 39.7709 40.7804 38.4548 41.6224 36.8836C42.2168 37.8258 43.0301 38.6159 43.9914 39.1821ZM40.5515 32.2721C40.5515 36.4461 37.1557 39.842 32.9816 39.842C28.8076 39.842 25.4118 36.4461 25.4118 32.2721V29.0111H26.6353C29.7606 29.0111 32.7382 28.0138 35.1861 26.2027L35.4412 26.584C36.4576 28.1036 38.1563 29.0111 39.9846 29.0111H40.5516V32.2721H40.5515ZM25.4115 26.4832C25.4115 22.3093 28.8074 18.9135 32.9814 18.9135C37.1555 18.9135 40.5513 22.3093 40.5513 26.4834V26.7846H39.9843C38.9008 26.7846 37.894 26.2469 37.2915 25.3461L36.8798 24.7307C37.2136 24.392 37.5333 24.0361 37.8361 23.6615C38.2226 23.1834 38.1483 22.4824 37.67 22.096C37.1922 21.7095 36.4911 21.7837 36.1045 22.2621C33.7819 25.1362 30.3305 26.7845 26.6351 26.7845H25.4115V26.4832ZM24.3406 36.8836C25.1844 38.4584 26.4461 39.777 27.9765 40.6903V42.3174C27.2772 41.8835 26.5099 41.5623 25.6998 41.3682L21.9716 40.4748V39.1822C22.9327 38.6159 23.7461 37.8258 24.3406 36.8836ZM25.9813 43.7916L22.4482 44.6382C21.9666 44.7537 21.5009 44.9027 21.0514 45.0796L21.6644 42.6906L25.1809 43.5334C25.4553 43.5991 25.7226 43.6859 25.9813 43.7916ZM12.9437 28.2541C12.9435 25.6428 15.068 23.5183 17.6795 23.5183H18.4494C21.0608 23.5183 23.1853 25.6428 23.1853 28.2541V28.5396C21.5788 28.52 20.021 28.0466 18.6741 27.1652C18.3038 26.9228 17.8252 26.9228 17.455 27.1652C16.1081 28.0467 14.5503 28.5201 12.9438 28.5396V28.2541H12.9437ZM12.9435 33.1802V30.7663C14.7459 30.7489 16.5007 30.2795 18.0643 29.3988C19.6279 30.2796 21.3827 30.7489 23.1851 30.7663V32.2721V33.1802C23.1851 35.7916 21.0606 37.9161 18.4492 37.9161H17.6792C15.068 37.9161 12.9435 35.7916 12.9435 33.1802ZM15.13 51.1493H6.70949V51.149V48.911C6.70949 46.3431 8.45389 44.1328 10.9514 43.5363L14.4566 42.6989L16.1126 49.1539C15.7163 49.7783 15.386 50.4466 15.13 51.1493ZM16.3762 40.0183C16.7986 40.0987 17.2339 40.1425 17.6793 40.1425H18.4493C18.8923 40.1425 19.325 40.0991 19.7451 40.0197V41.212L18.3502 46.6487C18.1872 46.78 18.0271 46.9146 17.8729 47.055L16.3762 41.2209V40.0183ZM16.7285 58.2736V54.7138C16.7285 52.0142 18.0394 49.5831 20.128 48.0937L30.3079 58.2736H16.7285ZM22.2083 47.0253C22.4555 46.9404 22.7083 46.8653 22.9671 46.8033L28.2837 45.5293L30.8967 55.7137L22.2083 47.0253ZM30.2029 44.0509V41.6666C31.0842 41.9277 32.0165 42.0687 32.9814 42.0687C33.95 42.0687 34.8858 41.9267 35.7702 41.6636V44.0637L32.9883 54.9072L30.2029 44.0509ZM37.6896 45.5411L42.9902 46.8073C43.2568 46.871 43.5168 46.9486 43.7713 47.0367L35.0751 55.733L37.6896 45.5411ZM49.2345 58.2736H35.683L45.848 48.1086C47.929 49.5982 49.2345 52.0244 49.2345 54.7189V58.2736ZM49.5869 41.2211L48.0891 47.0593C47.9357 46.9196 47.7765 46.7857 47.6144 46.6552L46.2179 41.2122V40.0199C46.6381 40.0994 47.0709 40.1427 47.5138 40.1427H48.2837C48.7293 40.1427 49.1646 40.0989 49.5869 40.0185V41.2211ZM59.2535 51.149H50.8313C50.5753 50.4474 50.2452 49.7805 49.8495 49.157L51.5062 42.6988L55.0114 43.5362C57.5091 44.1328 59.2534 46.3431 59.2534 48.9109V51.149H59.2535Z" fill="#181818"/>
<path d="M32.9814 3.5C32.3668 3.5 31.8682 3.99853 31.8682 4.61317V9.37958C31.8682 9.99445 32.3666 10.4928 32.9814 10.4928C33.5962 10.4928 34.0946 9.99423 34.0946 9.37958V4.61317C34.0947 3.99853 33.5962 3.5 32.9814 3.5Z" fill="#181818"/>
<path d="M33.7685 12.4639C33.5615 12.2569 33.2743 12.1377 32.9815 12.1377C32.6875 12.1377 32.4015 12.2568 32.1944 12.4639C31.9874 12.671 31.8682 12.9572 31.8682 13.251C31.8682 13.5438 31.9872 13.831 32.1944 14.0381C32.4015 14.2451 32.6887 14.3643 32.9815 14.3643C33.2743 14.3643 33.5615 14.2451 33.7685 14.0381C33.9756 13.8299 34.0948 13.5438 34.0948 13.251C34.0948 12.9571 33.9757 12.671 33.7685 12.4639Z" fill="#181818"/>
<path d="M25.5788 12.716L21.454 8.59205C21.0192 8.15732 20.3144 8.15754 19.8795 8.59228C19.4449 9.02701 19.445 9.73183 19.8798 10.1667L24.0047 14.2906C24.222 14.5079 24.507 14.6166 24.7918 14.6166C25.0768 14.6166 25.3617 14.5078 25.5791 14.2904C26.0136 13.8558 26.0135 13.1508 25.5788 12.716Z" fill="#181818"/>
<path d="M46.25 8.41964C45.8153 7.98523 45.1107 7.98501 44.6756 8.41964L40.2995 12.7956C39.8648 13.2304 39.8648 13.9352 40.2995 14.37C40.517 14.5875 40.8019 14.6961 41.0868 14.6961C41.3717 14.6961 41.6566 14.5873 41.874 14.37L46.2501 9.99404C46.6847 9.5593 46.6847 8.85437 46.25 8.41964Z" fill="#181818"/>
</g>
<defs>
<clipPath id="clip0_238_15434">
<rect width="64" height="64" fill="white" transform="translate(0.666626)"/>
</clipPath>
<clipPath id="clip1_238_15434">
<rect width="32" height="32" fill="white" transform="translate(0.666626)"/>
</clipPath>
</defs>
</svg>
