<svg width="65" height="65" viewBox="0 0 65 65" fill="none" xmlns="http://www.w3.org/2000/svg">
<g clip-path="url(#clip0_690_16669)">
<g clip-path="url(#clip1_690_16669)">
<circle cx="16.6666" cy="16.3066" r="16" fill="#A09FF0"/>
</g>
<path d="M46.7679 27.2944C46.599 27.5555 46.4608 27.8473 46.2611 28.093C42.7444 32.3622 39.2123 36.6314 35.6956 40.9006C35.3731 41.2845 35.066 41.6684 34.7435 42.0524C33.991 42.9584 33.5149 42.9738 32.7778 42.0677C29.6297 38.2592 26.4815 34.4507 23.3487 30.6422C22.6116 29.7515 21.8898 28.8608 21.1527 27.9855C20.7841 27.5555 20.7227 27.1255 21.0145 26.6187C22.2891 24.3152 23.5637 21.9963 24.8383 19.6774C25.084 19.2321 25.4219 19.0171 25.944 19.0171C31.15 19.0324 36.3713 19.0324 41.5773 19.0171C42.1301 19.0171 42.468 19.2321 42.729 19.7081C43.9883 22.0117 45.2476 24.2998 46.5068 26.6034C46.5836 26.803 46.645 27.018 46.7679 27.2944ZM33.6839 38.1364C33.7146 38.1364 33.7606 38.1517 33.7914 38.1517C34.6974 34.8346 35.6035 31.5329 36.5402 28.1698C34.6513 28.1698 32.8392 28.1698 30.9503 28.1698C31.8718 31.5176 32.7778 34.8193 33.6839 38.1364ZM23.6558 28.1391C26.3586 31.4101 28.954 34.5429 31.5493 37.7064C31.58 37.6296 31.5953 37.6142 31.5953 37.5989C30.7661 34.5429 29.9214 31.4715 29.0768 28.4155C29.0461 28.2926 28.8465 28.1544 28.7236 28.1544C27.0958 28.1391 25.4526 28.1391 23.6558 28.1391ZM43.8347 28.1391C42.1148 28.1391 40.5484 28.1544 38.982 28.1237C38.5366 28.1083 38.3984 28.2926 38.2909 28.6765C37.7381 30.7651 37.1545 32.8382 36.5863 34.9114C36.3406 35.8021 36.0949 36.7082 35.8645 37.5989C35.8952 37.6142 35.9413 37.6296 35.972 37.6603C38.552 34.5275 41.1473 31.3947 43.8347 28.1391ZM35.3117 20.8753C36.141 22.3802 36.9242 23.8084 37.7534 25.3134C38.5827 23.7931 39.3659 22.3649 40.1952 20.8753C38.5366 20.8753 36.9856 20.8753 35.3117 20.8753ZM27.3108 20.8906C28.1247 22.3802 28.9079 23.8084 29.7372 25.3134C30.5664 23.8084 31.3496 22.3802 32.1635 20.8906C30.5204 20.8906 28.954 20.8906 27.3108 20.8906ZM28.1554 26.2809C27.3261 24.7606 26.5429 23.3477 25.7137 21.8428C24.8844 23.3631 24.1012 24.7913 23.2873 26.2809C24.9612 26.2809 26.4969 26.2809 28.1554 26.2809ZM33.7453 21.8428C32.916 23.3477 32.1328 24.7759 31.3189 26.2655C32.9775 26.2655 34.5285 26.2655 36.1717 26.2655C35.3578 24.7759 34.5746 23.3477 33.7453 21.8428ZM39.3505 26.2502C40.9937 26.2502 42.5601 26.2502 44.2033 26.2502C43.3894 24.7759 42.6062 23.3477 41.7769 21.8428C40.9323 23.3477 40.1491 24.7759 39.3505 26.2502Z" fill="black"/>
<path d="M11.5545 44.4327C12.9827 43.6034 14.3802 42.7742 15.8083 41.9756C17.0062 41.2999 18.204 40.6242 19.4479 40.0407C20.8607 39.3957 22.3196 39.3957 23.8093 39.9024C26.1589 40.701 28.5392 41.4381 30.9041 42.1906C31.1652 42.2674 31.4262 42.3135 31.6873 42.3749C33.6991 42.7895 34.8508 44.617 34.3441 46.598C34.3133 46.7055 34.2826 46.813 34.2212 47.0434C34.6665 46.813 35.0198 46.6441 35.3576 46.4598C38.0604 44.8934 40.7478 43.3117 43.4507 41.7606C44.6946 41.0389 45.9999 40.4399 47.4895 40.3939C50.2077 40.3017 51.943 42.8202 50.8219 45.2927C50.5609 45.8609 50.0695 46.4445 49.5473 46.767C44.5564 49.8998 39.5193 52.9711 34.4976 56.0579C32.8237 57.0868 31.0423 57.3171 29.1381 56.795C25.9746 55.935 22.8111 55.1364 19.6629 54.2304C18.7722 53.9693 18.0812 54.0461 17.3747 54.7064C17.559 55.0443 17.7587 55.3975 17.9583 55.7661C18.5265 56.8718 18.204 58.0542 17.1444 58.6992C16.3765 59.1599 15.5933 59.6053 14.7948 60.0199C13.6891 60.6035 12.4913 60.281 11.8616 59.1906C9.54275 55.1364 7.25458 51.0669 4.96641 46.9973C4.35213 45.8916 4.70534 44.6784 5.81103 44.0334C6.51745 43.6188 7.23922 43.2195 7.96099 42.8202C9.22025 42.1138 10.4181 42.4517 11.1399 43.6956C11.2781 43.926 11.4009 44.1563 11.5545 44.4327ZM16.438 53.0633C16.8987 52.8022 17.298 52.6026 17.6512 52.3568C18.0812 52.0651 18.5111 52.0344 19.0026 52.1726C22.3811 53.094 25.7749 53.954 29.1381 54.9214C30.9041 55.4282 32.4552 55.1979 34.0062 54.215C38.7822 51.2205 43.5889 48.3026 48.3802 45.3541C49.1941 44.8474 49.5013 44.0642 49.2095 43.2042C48.9638 42.4824 48.3034 42.1446 47.3359 42.2367C46.1535 42.3442 45.1399 42.897 44.1571 43.4652C41.5157 45.0009 38.859 46.5366 36.2176 48.103C34.8201 48.9323 33.3305 49.3316 31.7641 49.0091C29.4759 48.533 27.2338 47.9187 24.9764 47.3352C24.4082 47.197 24.1471 46.6748 24.3007 46.1834C24.4542 45.7073 24.8996 45.4616 25.4524 45.5845C25.9746 45.7073 26.4813 45.8763 27.0035 45.9991C28.3395 46.337 29.6602 46.7362 31.0116 46.9819C31.9177 47.1509 32.5012 46.6595 32.6394 45.8456C32.7623 45.1084 32.2555 44.4327 31.457 44.187C28.8463 43.3885 26.2049 42.6513 23.625 41.7606C22.1046 41.2385 20.7379 41.3153 19.3711 42.0831C17.513 43.112 15.6855 44.187 13.8427 45.2466C13.3973 45.5077 12.952 45.7534 12.4606 46.0452C13.7966 48.3948 15.1019 50.6983 16.438 53.0633ZM9.2049 44.2638C9.02062 44.3559 8.91312 44.402 8.80562 44.4481C8.16063 44.8166 7.51565 45.2006 6.85531 45.5538C6.5021 45.7381 6.45603 45.953 6.64031 46.2909C8.88241 50.2376 11.1091 54.1843 13.3359 58.131C13.5355 58.4842 13.7505 58.5149 14.073 58.3153C14.6566 57.9621 15.2555 57.6089 15.8698 57.3018C16.3612 57.056 16.4226 56.795 16.1462 56.3189C14.7794 53.954 13.4434 51.5583 12.092 49.178C11.2474 47.6884 10.4181 46.2141 9.57346 44.7399C9.51203 44.5709 9.34311 44.4174 9.2049 44.2638Z" fill="black"/>
<path d="M29.2146 15.2394C29.3989 14.4562 29.5371 13.5502 29.8443 12.7209C30.1667 11.8455 29.9978 11.2774 29.2146 10.7706C28.5696 10.3406 28.0168 9.75702 27.4025 9.2656C27.034 8.95846 26.8804 8.5899 27.034 8.14455C27.1875 7.71456 27.5407 7.561 27.9861 7.54564C29.015 7.48421 30.0439 7.37671 31.0882 7.33064C31.4107 7.31528 31.5489 7.17707 31.6564 6.90065C32.0249 5.94852 32.4242 5.02711 32.7928 4.07499C32.9771 3.62964 33.2381 3.29179 33.7449 3.30714C34.2363 3.3225 34.482 3.62964 34.651 4.05963C35.0349 4.9964 35.4341 5.93316 35.7874 6.88529C35.9102 7.19242 36.0638 7.31528 36.417 7.34599C37.4305 7.39206 38.4441 7.49956 39.4576 7.56099C39.9183 7.5917 40.2869 7.74528 40.4405 8.20598C40.5787 8.66669 40.3944 9.0199 40.0412 9.31168C39.2887 9.94131 38.567 10.6016 37.7838 11.1852C37.4152 11.477 37.3691 11.7381 37.492 12.1527C37.753 13.0895 37.9527 14.0416 38.1984 14.9937C38.3212 15.4237 38.2444 15.7923 37.8912 16.0687C37.5073 16.3758 37.108 16.299 36.7241 16.0533C35.8641 15.5158 34.9888 14.9937 34.1442 14.4409C33.8524 14.2412 33.6374 14.2259 33.3303 14.4255C32.4549 15.0091 31.5489 15.5619 30.6428 16.084C29.9671 16.4833 29.2146 16.084 29.2146 15.2394ZM37.277 9.21953C36.5706 9.1581 36.0177 9.08132 35.4802 9.06596C34.9274 9.0506 34.6049 8.77418 34.4206 8.2674C34.221 7.76063 34.006 7.25385 33.7602 6.65493C33.4992 7.28456 33.2688 7.8067 33.0692 8.32883C32.8849 8.78954 32.5778 9.03525 32.0864 9.06596C31.5182 9.09667 30.9653 9.1581 30.2589 9.21953C30.7964 9.68023 31.211 10.0488 31.6564 10.402C32.0403 10.7091 32.1785 11.0777 32.0403 11.5691C31.8867 12.122 31.7792 12.6748 31.6257 13.3505C32.1939 12.9973 32.6853 12.7209 33.1306 12.4137C33.5913 12.1066 34.006 12.122 34.4667 12.4137C34.9274 12.7209 35.4034 12.9973 35.9716 13.3352C35.8181 12.6748 35.7106 12.1066 35.5416 11.5691C35.4034 11.0777 35.5416 10.7091 35.9102 10.402C36.2941 10.0488 36.7088 9.69559 37.277 9.21953Z" fill="black"/>
<path d="M22.9033 11.4617C22.8265 12.3217 22.7651 13.1817 22.6576 14.0416C22.6115 14.4563 22.7037 14.702 23.0876 14.917C23.9476 15.393 24.7615 15.9305 25.5908 16.4219C26.0054 16.6677 26.2818 16.9748 26.1897 17.4816C26.0976 17.9576 25.7597 18.1573 25.3143 18.2648C24.3315 18.4798 23.3487 18.7408 22.3505 18.9558C22.028 19.0326 21.8744 19.1708 21.813 19.5087C21.6134 20.4762 21.3676 21.4436 21.1373 22.4111C21.0298 22.8718 20.8455 23.2557 20.3234 23.3325C19.8166 23.4093 19.5095 23.1329 19.2638 22.7183C18.757 21.8583 18.2195 21.029 17.7281 20.169C17.5591 19.8772 17.3902 19.7697 17.0524 19.8158C16.0388 19.9233 15.0253 19.9847 14.0271 20.0769C13.5817 20.1229 13.1671 20.0308 12.9521 19.6008C12.7217 19.1555 12.8753 18.7715 13.1978 18.403C13.8735 17.6505 14.5338 16.8827 15.1788 16.0841C15.3017 15.9152 15.3631 15.5927 15.2863 15.393C14.9331 14.4563 14.5339 13.5502 14.1499 12.6442C13.9503 12.1988 13.8735 11.7535 14.2574 11.3695C14.626 11.001 15.0406 11.0778 15.486 11.2774C16.392 11.6767 17.3288 12.0299 18.2348 12.4445C18.542 12.5827 18.7416 12.552 18.9873 12.337C19.7091 11.6767 20.4616 11.0624 21.1987 10.4174C21.5673 10.0949 21.9358 9.83386 22.4273 10.0949C22.9494 10.356 22.9955 10.8167 22.9187 11.3235C22.9033 11.3542 22.9033 11.4156 22.9033 11.4617ZM20.9223 13.0588C20.4769 13.4427 20.1084 13.7038 19.7859 14.0416C19.2484 14.6098 18.6648 14.6866 17.9738 14.3181C17.5745 14.1031 17.1445 13.9649 16.6224 13.7499C16.8681 14.3641 17.0524 14.8709 17.2827 15.3316C17.5438 15.8691 17.4516 16.3144 17.0524 16.7444C16.6992 17.1284 16.3767 17.543 15.9467 18.0498C16.5763 17.9883 17.0524 17.973 17.5284 17.9116C18.2041 17.8041 18.6648 18.0344 18.9873 18.6487C19.2177 19.094 19.4941 19.4933 19.8166 20.0308C19.9702 19.3858 20.1237 18.9098 20.2005 18.4183C20.2927 17.7426 20.6919 17.4355 21.3369 17.3126C21.8284 17.2205 22.3044 17.0823 22.9033 16.9441C22.3505 16.6062 21.9512 16.3298 21.5059 16.0995C20.9377 15.8077 20.6919 15.393 20.7994 14.7481C20.8609 14.2413 20.8609 13.7191 20.9223 13.0588Z" fill="black"/>
<path d="M61.3262 30.8421C61.3416 31.3335 61.0498 31.6099 60.6198 31.7789C59.683 32.1628 58.7463 32.5621 57.7941 32.9153C57.4563 33.0381 57.3181 33.2224 57.3027 33.5756C57.2413 34.5892 57.1645 35.6027 57.0877 36.6163C57.057 37.077 56.8881 37.4302 56.4274 37.5837C55.9513 37.7373 55.6135 37.4916 55.337 37.1537C54.6921 36.3859 54.0317 35.6488 53.4174 34.8656C53.1717 34.5584 52.9414 34.5124 52.5882 34.6045C51.6514 34.8656 50.6993 35.0806 49.7472 35.3109C49.3018 35.4184 48.8565 35.4338 48.5647 35.0038C48.2729 34.5738 48.3958 34.1745 48.6568 33.7752C49.1943 32.9306 49.7011 32.0706 50.2386 31.2414C50.4229 30.9496 50.4075 30.7499 50.2386 30.4735C49.7011 29.6443 49.1943 28.7843 48.6568 27.9396C48.3958 27.5404 48.2883 27.1257 48.58 26.7111C48.8872 26.2811 49.3172 26.2965 49.7779 26.404C50.7607 26.6497 51.7435 26.9107 52.7417 27.1104C52.926 27.1564 53.2332 27.0643 53.356 26.9107C54.0471 26.1429 54.7074 25.3443 55.3678 24.5458C55.6596 24.1926 55.9974 23.9622 56.4581 24.1158C56.9188 24.2694 57.0877 24.6379 57.1184 25.0833C57.1799 26.0968 57.272 27.1104 57.3334 28.1239C57.3488 28.4771 57.487 28.6614 57.8249 28.7843C58.777 29.1375 59.6984 29.5521 60.6505 29.9207C61.0344 30.1203 61.3109 30.3814 61.3262 30.8421ZM51.2675 28.6921C51.6207 29.2603 51.9125 29.7671 52.2196 30.2432C52.5114 30.6732 52.496 31.0878 52.2196 31.5178C51.9125 31.9785 51.636 32.4699 51.2828 33.0535C51.9432 32.8999 52.45 32.777 52.9721 32.6388C53.5096 32.5006 53.9396 32.6081 54.2928 33.0688C54.6153 33.4988 54.9838 33.8981 55.4138 34.3895C55.4599 33.7752 55.5521 33.2992 55.5367 32.8231C55.5213 32.1013 55.8438 31.6867 56.5195 31.4717C56.9802 31.3182 57.4102 31.1032 57.9631 30.8728C57.3795 30.6271 56.9188 30.4121 56.4581 30.2585C55.8285 30.0435 55.5367 29.6443 55.5367 28.9839C55.5367 28.4925 55.4599 27.9857 55.4138 27.3714C54.9685 27.8936 54.5999 28.3082 54.2467 28.7382C53.9242 29.1528 53.5096 29.245 53.0182 29.1221C52.4653 28.9839 51.9125 28.8457 51.2675 28.6921Z" fill="black"/>
<path d="M18.2501 35.449C17.0369 35.1572 15.9619 34.9115 14.887 34.6198C14.5491 34.5276 14.3341 34.5737 14.1038 34.8655C13.4895 35.6333 12.8445 36.3551 12.2149 37.1076C11.9077 37.4761 11.5699 37.7679 11.0324 37.599C10.4949 37.4147 10.4028 36.9847 10.3721 36.4933C10.3106 35.5719 10.2185 34.6658 10.1878 33.7444C10.1724 33.2376 9.95742 33.0227 9.49671 32.8537C8.62137 32.5312 7.76139 32.1473 6.88605 31.8095C6.45606 31.6405 6.14892 31.3795 6.14892 30.8881C6.14892 30.3966 6.4407 30.1356 6.8707 29.9666C7.80746 29.5981 8.74423 29.1834 9.69636 28.8302C10.0035 28.7074 10.1417 28.5385 10.1571 28.216C10.2031 27.2792 10.2953 26.3424 10.3567 25.4057C10.3874 24.8682 10.4488 24.346 11.0785 24.1617C11.6467 23.9928 11.9692 24.3614 12.2763 24.7453C12.8906 25.4824 13.4895 26.2196 14.1498 26.926C14.2881 27.0795 14.6105 27.187 14.8102 27.141C15.7777 26.9413 16.7451 26.6803 17.7126 26.4499C18.1887 26.3424 18.634 26.3117 18.9565 26.7724C19.2483 27.2024 19.1101 27.6017 18.849 28.001C18.3423 28.8149 17.8508 29.6441 17.3287 30.4427C17.1137 30.7806 17.083 31.0263 17.3133 31.3641C17.8816 32.2241 18.4498 33.0994 18.9258 34.0055C19.064 34.2666 19.0487 34.7273 18.9258 35.019C18.8337 35.2033 18.4498 35.3262 18.2501 35.449ZM9.52743 30.8727C10.1571 31.1338 10.6178 31.3488 11.1092 31.5177C11.6927 31.7173 11.9538 32.1166 11.9692 32.7309C11.9845 33.253 12.046 33.7598 12.092 34.4048C12.5374 33.8826 12.8906 33.5141 13.1977 33.0994C13.5509 32.6234 13.9963 32.5005 14.5645 32.6541C15.0712 32.7923 15.5934 32.8998 16.2384 33.0534C15.9005 32.5005 15.6548 32.0552 15.363 31.6405C14.9945 31.1184 15.0098 30.627 15.3784 30.1048C15.6702 29.6902 15.9159 29.2449 16.2384 28.7074C15.578 28.8609 15.0559 28.9838 14.5184 29.122C13.9963 29.2602 13.5816 29.1374 13.2438 28.7074C12.9059 28.2774 12.5374 27.8781 12.1074 27.356C12.0613 27.9703 11.9845 28.4463 11.9845 28.907C11.9999 29.6288 11.6774 30.0588 11.0017 30.2738C10.541 30.4273 10.111 30.627 9.52743 30.8727Z" fill="black"/>
<path d="M53.3556 20.0461C52.4802 19.9693 51.4974 19.9232 50.5299 19.8157C50.0846 19.7697 49.8849 19.9079 49.6699 20.2764C49.1939 21.1057 48.6871 21.9196 48.1957 22.7335C47.95 23.1482 47.6428 23.4246 47.1361 23.3478C46.6293 23.2557 46.445 22.8717 46.3375 22.411C46.1225 21.4589 45.8614 20.5221 45.6772 19.5547C45.6004 19.1707 45.4161 19.0172 45.0629 18.9404C44.0954 18.7254 43.1279 18.4797 42.1605 18.2647C41.7151 18.1572 41.3773 17.9575 41.2851 17.4815C41.2083 17.0054 41.454 16.6829 41.8533 16.4526C42.744 15.9305 43.6194 15.3776 44.5101 14.8555C44.7865 14.7019 44.8633 14.5176 44.8325 14.2105C44.725 13.1816 44.6483 12.1527 44.5561 11.1238C44.5101 10.6631 44.6329 10.2945 45.0783 10.0641C45.4929 9.84914 45.8461 9.98735 46.1839 10.2791C46.9671 10.9548 47.7657 11.6152 48.5336 12.3062C48.7946 12.5366 48.9942 12.5519 49.286 12.4137C50.2074 11.9991 51.1596 11.6305 52.081 11.2313C52.4956 11.047 52.8949 11.0163 53.2481 11.3541C53.6013 11.692 53.5706 12.0912 53.3863 12.5212C52.987 13.458 52.6185 14.3948 52.2038 15.3162C52.0503 15.654 52.1117 15.869 52.342 16.1301C53.0024 16.8672 53.632 17.6351 54.3077 18.3875C54.6149 18.7408 54.7684 19.1093 54.5688 19.5393C54.3384 20.0154 53.9238 20.1229 53.3556 20.0461ZM47.6736 20.0307C48.0114 19.4625 48.3032 19.0479 48.5336 18.5872C48.8407 18.019 49.2707 17.8193 49.9003 17.8961C50.3917 17.9576 50.8985 17.9729 51.5435 18.0343C51.0674 17.4815 50.7142 17.0669 50.3457 16.6522C50.0232 16.2837 49.9464 15.8997 50.1614 15.439C50.3917 14.9323 50.6067 14.3948 50.8678 13.7651C50.2228 14.0262 49.6853 14.2412 49.1632 14.4562C48.7025 14.6558 48.3186 14.5944 47.95 14.2565C47.5354 13.8726 47.09 13.5194 46.5525 13.0434C46.5986 13.6116 46.5986 14.0416 46.6754 14.4715C46.8289 15.3008 46.5525 15.869 45.7693 16.2222C45.3854 16.3912 45.0475 16.6522 44.5868 16.944C45.2318 17.0976 45.7233 17.2204 46.23 17.3279C46.8289 17.4508 47.1821 17.7579 47.2743 18.3722C47.3664 18.879 47.52 19.3704 47.6736 20.0307Z" fill="black"/>
<path d="M8.80562 45.83C9.25097 45.8454 9.63489 46.2447 9.63489 46.69C9.61954 47.1354 9.22026 47.5193 8.77491 47.5039C8.32957 47.4886 7.94564 47.1047 7.96099 46.644C7.96099 46.1986 8.36027 45.8147 8.80562 45.83Z" fill="black"/>
</g>
<defs>
<clipPath id="clip0_690_16669">
<rect width="64" height="64" fill="white" transform="translate(0.666626 0.306641)"/>
</clipPath>
<clipPath id="clip1_690_16669">
<rect width="32" height="32" fill="white" transform="translate(0.666626 0.306641)"/>
</clipPath>
</defs>
</svg>
