<svg width="24" height="25" viewBox="0 0 24 25" fill="none" xmlns="http://www.w3.org/2000/svg">
<path d="M12 2.80859L11.7202 2.81244C6.32942 2.96076 2 7.38215 2 12.8086C2 18.3186 6.48 22.8086 12 22.8086C17.51 22.8086 22 18.3186 22 12.8086C22 7.28859 17.51 2.80859 12 2.80859ZM10.02 8.80859C10.32 8.50859 10.79 8.50859 11.08 8.80859L14.57 12.2786C14.71 12.4186 14.79 12.6086 14.79 12.8086C14.79 13.0086 14.71 13.1986 14.57 13.3386L11.08 16.8086C10.94 16.9586 10.75 17.0286 10.56 17.0286C10.36 17.0286 10.17 16.9586 10.02 16.8086C9.73 16.5086 9.73 16.0386 10.03 15.7486L12.98 12.8086L10.03 9.86859C9.73 9.57859 9.73 9.09859 10.02 8.80859Z" fill="white"/>
</svg>
