<svg width="300" height="272" viewBox="0 0 300 272" fill="none" xmlns="http://www.w3.org/2000/svg">
<path d="M143.514 259.673C141.709 259.701 139.904 259.898 138.099 259.757C138.015 260.575 137.479 265.426 133.249 268.471C132.092 269.318 130.767 269.938 129.413 270.389C128.088 270.756 126.734 270.981 125.522 271.094C123.125 271.32 121.32 271.179 121.32 271.179C121.32 271.179 121.574 269.825 122.42 268.105C123.266 266.385 124.732 264.27 127.016 262.747C130.288 260.716 134.433 259.87 136.605 259.701C134.349 259.616 132.121 259.588 129.865 259.419L123.153 258.686C123.068 259.081 122.73 260.491 121.884 262.126C121.461 262.944 120.869 263.818 120.135 264.636C119.402 265.426 118.472 266.187 117.343 266.808C114.862 268.133 111.788 268.556 109.363 268.556C106.966 268.443 105.189 268.048 105.189 268.048C105.189 268.048 105.612 266.723 106.655 265.144C107.699 263.536 109.363 261.675 111.844 260.434C115.369 258.545 119.543 258.488 121.715 258.545C119.487 258.206 117.287 257.755 115.087 257.36C113.988 257.135 112.86 256.994 111.788 256.74L108.517 255.894C108.235 256.684 106.599 261.252 101.748 263.311C99.0976 264.439 96.0519 264.298 93.6266 264.044C92.414 263.903 91.3987 263.706 90.6655 263.508C89.9323 263.339 89.5093 263.17 89.5093 263.17C89.5093 263.17 90.0733 261.929 91.2859 260.462C92.5268 258.968 94.4162 257.219 97.0389 256.261C98.9002 255.584 100.846 255.358 102.594 255.358C104.371 255.302 105.979 255.386 107.05 255.527L103.779 254.681C102.679 254.399 101.636 253.976 100.564 253.638C98.449 252.905 96.3057 252.228 94.1906 251.466C93.824 252.2 91.6808 256.571 86.661 257.953C83.8973 258.714 80.7952 258.46 78.511 257.783C76.1703 257.163 74.5347 256.402 74.5347 256.402C74.5347 256.402 75.2397 255.217 76.6497 253.892C78.0598 252.566 80.1184 251.1 82.8257 250.479C84.7152 250.085 86.7174 250 88.4941 250.141C90.2707 250.282 91.8218 250.649 92.8652 250.931L86.661 248.336C84.6306 247.405 82.6565 246.334 80.6261 245.347C80.4004 245.685 79.6108 246.898 78.229 248.111C77.5522 248.731 76.7061 249.351 75.7191 249.859C75.2115 250.113 74.6757 250.367 74.1117 250.564C73.5477 250.733 72.9554 250.874 72.3068 250.959C69.5149 251.325 66.4975 250.62 64.2132 249.803C63.057 249.436 62.1545 248.9 61.4777 248.534C60.8291 248.167 60.4625 247.913 60.4625 247.913C60.4625 247.913 61.3085 246.813 62.8314 245.685C64.3824 244.529 66.5539 243.429 69.3457 243.006C71.3198 242.752 73.2938 242.95 75.0141 243.345C75.8883 243.542 76.6779 243.768 77.383 244.021C78.088 244.247 78.7648 244.444 79.2724 244.642L77.7778 243.88L76.3395 243.006L73.463 241.258C71.5454 240.102 69.5995 238.973 67.7947 237.62C67.2589 238.268 64.1568 241.991 58.9114 242.217C55.9786 242.414 53.1867 241.201 51.0434 240.102C48.9002 238.973 47.4619 237.874 47.4619 237.874C47.4619 237.874 48.4207 236.887 50.1128 235.928C51.7766 234.969 54.1737 234.01 56.9374 234.01C58.9114 233.982 60.7727 234.546 62.4647 235.082C64.185 235.618 65.6232 236.294 66.5821 236.802L63.8184 234.856L62.4365 233.897C61.9853 233.559 61.5623 233.192 61.1393 232.826L55.9504 228.539C55.3581 229.103 51.7485 232.516 46.6159 232.008C43.824 231.726 40.9475 230.429 39.0017 229.019C37.0558 227.609 35.815 226.283 35.815 226.283C35.815 226.283 36.8866 225.409 38.6633 224.676C40.4399 223.914 42.8934 223.266 45.6007 223.66C49.5488 224.083 53.1303 226.283 54.8787 227.58C51.6638 224.45 48.2797 221.489 45.3751 218.049C44.6982 218.528 40.8065 221.433 35.6176 220.474C32.8257 219.882 30.344 218.105 28.4828 216.526C27.5522 215.736 26.819 214.975 26.3113 214.439C26.0575 214.157 25.8601 213.931 25.7473 213.762C25.6345 213.593 25.5499 213.508 25.5499 213.508C25.5499 213.508 26.7061 212.775 28.5392 212.267C30.4004 211.732 32.9385 211.337 35.674 211.985C37.5916 212.437 39.3401 213.339 40.8065 214.326C42.273 215.313 43.5984 216.244 44.4162 216.977L42.1602 214.467L40.1015 211.816C38.7479 210.039 37.3378 208.291 36.0124 206.458C35.2792 206.881 31.0773 209.278 26.1421 207.642C23.463 206.712 20.9532 204.822 19.4585 202.961C17.8793 201.128 16.9769 199.577 16.9769 199.577C16.9769 199.577 18.2177 198.985 20.1072 198.675C21.9966 198.364 24.5347 198.28 27.101 199.295C28.8494 200.028 30.626 201.043 32.0079 202.171C33.3897 203.271 34.4896 204.428 35.1946 205.274L31.5003 199.633C30.8517 198.703 30.3722 197.688 29.8082 196.729L28.1726 193.768C27.4112 194.078 22.899 196.024 18.1049 193.852C15.595 192.611 13.4236 190.384 12.0417 188.409C10.6881 186.407 9.95487 184.772 9.95487 184.772C9.95487 184.772 11.2521 184.32 13.1698 184.236C15.0874 184.123 17.6255 184.377 20.0508 185.646C23.6323 187.394 26.0575 190.75 27.4394 192.499C26.3113 190.553 25.3525 188.522 24.4219 186.492C23.4067 184.49 22.5888 182.374 21.7428 180.316C21.348 180.429 19.9662 180.823 18.1331 180.88C17.2025 180.908 16.1872 180.823 15.0874 180.598C14.0158 180.344 12.916 179.921 11.8161 179.216C10.6035 178.455 9.53187 177.468 8.62944 176.396C7.69882 175.324 7.02199 174.14 6.42978 173.096C5.86576 172.025 5.41455 171.066 5.13254 170.361C4.85053 169.656 4.70953 169.233 4.70953 169.233C4.70953 169.233 6.03497 168.951 7.98082 169.092C9.89847 169.205 12.4083 169.741 14.7208 171.292C15.5386 171.827 16.2436 172.476 16.9205 173.153C17.6255 173.83 18.2459 174.535 18.7817 175.24C19.8816 176.65 20.6148 178.032 21.1788 178.99C20.361 176.904 19.6559 174.76 18.8945 172.645C18.2177 170.502 17.5973 168.359 16.9487 166.187C16.1309 166.328 11.3367 167.146 7.2476 163.903C4.93513 162.126 3.58149 159.419 2.59447 157.163C2.11505 156.035 1.86125 155.02 1.66384 154.315C1.49464 153.582 1.41004 153.13 1.41004 153.13C1.41004 153.13 2.79188 153.017 4.65313 153.356C6.54258 153.723 8.88324 154.54 11.0547 156.345C12.5775 157.614 13.7056 159.222 14.608 160.744C15.5386 162.267 16.1873 163.734 16.5821 164.749C16.0745 162.549 15.454 160.406 15.0874 158.178C14.6644 155.979 14.2132 153.779 13.9312 151.551C13.1134 151.579 8.20643 151.833 4.51213 148.139C2.59447 146.108 1.26904 143.26 0.733222 140.919C0.141006 138.579 0 136.774 0 136.774C0 136.774 1.38184 136.802 3.21489 137.394C5.04794 137.958 7.3604 139.058 9.22165 141.117C10.5189 142.555 11.5623 144.275 12.2673 145.911C12.9442 147.547 13.4518 149.069 13.7338 150.113C13.1134 145.657 12.775 141.173 12.6339 136.689C11.8161 136.633 6.88099 136.294 3.7225 132.177C2.84827 131.049 2.14326 129.752 1.72025 128.426C1.26904 127.101 0.987026 125.747 0.817821 124.563C0.42301 122.166 0.592218 120.361 0.592218 120.361C0.592218 120.361 1.94586 120.558 3.6943 121.348C5.41455 122.138 7.58601 123.491 9.22165 125.747C11.4495 128.934 12.3237 133.051 12.5776 135.223C12.6058 132.967 12.5493 130.739 12.6622 128.483C12.8314 126.255 12.8313 123.999 13.1134 121.771C12.2955 121.602 7.52961 120.699 4.76593 116.244C3.35589 113.818 2.82008 110.745 2.76367 108.319C2.73547 105.922 3.04568 104.117 3.04568 104.117C3.04568 104.117 4.37112 104.484 6.03497 105.471C7.69881 106.458 9.67287 108.065 10.9701 110.491C12.9442 113.931 13.1416 118.105 13.2544 120.305C13.3672 119.177 13.48 118.077 13.621 116.949L14.1286 113.621C14.4106 111.393 14.89 109.193 15.3412 106.994C14.5798 106.74 9.81387 105.245 7.72701 100.536C7.1348 99.2386 6.82459 97.8003 6.62718 96.4185C6.51438 95.0367 6.54258 93.6548 6.65539 92.4704C6.76819 91.2578 6.9374 90.2143 7.0784 89.4811C7.2476 88.7479 7.3886 88.3249 7.3886 88.3249C7.3886 88.3249 8.65764 88.8325 10.1805 90.0169C11.6751 91.1731 13.5082 93.0344 14.5516 95.6007C15.9898 99.2104 15.877 103.412 15.6232 105.584C16.159 103.412 16.6949 101.213 17.2589 99.0412C17.9357 96.8979 18.5279 94.7264 19.2611 92.6114C18.4997 92.273 14.0722 90.2707 12.4365 85.3074C11.5905 82.6001 11.8725 79.5262 12.3237 77.1292C12.8596 74.7885 13.5928 73.1247 13.5928 73.1247C13.5928 73.1247 14.8054 73.7733 16.1873 75.1269C17.5691 76.4805 19.0919 78.4828 19.8252 81.1619C20.3892 83.0795 20.4738 85.0536 20.361 86.802C20.2482 88.5787 20.0226 90.1579 19.7688 91.2295L20.8968 88.0429C21.2916 86.9994 21.7428 85.956 22.1658 84.9126C22.5888 83.8692 23.0118 82.8257 23.463 81.8105L24.9013 78.7648C24.5347 78.5674 23.322 77.806 22.053 76.4805C20.784 75.1551 19.4303 73.2374 18.9791 70.6994C18.7253 69.2893 18.7253 67.8511 18.8945 66.4411C19.0637 65.031 19.4585 63.7338 19.8252 62.5776C20.22 61.4213 20.643 60.4625 20.9532 59.7857C21.2634 59.1088 21.5172 58.714 21.5172 58.714C21.5172 58.714 22.6452 59.5037 23.8297 60.9983C25.0423 62.493 26.3677 64.6926 26.7907 67.4563C26.9317 68.4151 26.9599 69.4021 26.9317 70.3328C26.9035 71.2916 26.8189 72.2222 26.6497 73.0964C26.3677 74.8449 25.8319 76.3395 25.5217 77.4112C26.5087 75.3807 27.6086 73.4349 28.6238 71.4326C29.7518 69.4868 30.8799 67.5409 32.0643 65.6514C31.4157 65.1438 27.5522 62.1827 27.1574 56.9656C26.9036 54.0891 27.9752 51.2126 28.934 48.9848C29.9774 46.8133 31.1055 45.3751 31.1055 45.3751C31.1055 45.3751 32.1207 46.3057 33.1359 47.9413C34.1793 49.577 35.1382 51.8613 35.2792 54.6531C35.3638 56.6272 34.9972 58.573 34.4614 60.2369C33.9819 61.9571 33.3615 63.4236 32.8821 64.4106C34.123 62.5494 35.3356 60.6317 36.6892 58.855L38.6633 56.1478C39.3401 55.2454 40.0733 54.3993 40.7783 53.5251C40.2143 52.9611 36.661 49.4924 36.9148 44.3034C37.084 41.4834 38.2967 38.6069 39.6503 36.6046C40.9475 34.5742 42.1884 33.2487 42.1884 33.2487C42.1884 33.2487 43.0908 34.2922 43.9086 36.0406C44.7264 37.7891 45.4879 40.2425 45.2623 42.978C45.0648 44.8957 44.529 46.8415 43.7958 48.449C43.0908 50.0564 42.2448 51.4382 41.709 52.3689C42.3858 51.4946 43.119 50.6204 43.8804 49.8026L46.1365 47.2927C47.6311 45.6289 49.2668 44.0778 50.8178 42.4422C50.282 41.7936 47.2363 37.9865 48.0823 32.8539C48.5053 29.9774 50.1974 27.4394 51.692 25.5217C52.4535 24.5629 53.1585 23.8015 53.7225 23.2939C54.2865 22.7862 54.6249 22.5042 54.6249 22.5042C54.6249 22.5042 55.3863 23.6323 56.0068 25.4653C56.599 27.2702 57.0502 29.7518 56.5144 32.5155C56.1478 34.4614 55.2735 36.1816 54.3993 37.7609C53.5251 39.3119 52.5663 40.5809 51.8612 41.427C55.1325 38.3531 58.5166 35.392 62.0981 32.6847C61.6751 31.9797 59.0806 27.8624 60.4907 22.7862C61.3367 20.1072 63.2262 17.6537 64.9464 15.9617C66.6949 14.326 68.2177 13.339 68.2177 13.339C68.2177 13.339 68.8663 14.5516 69.2329 16.4411C69.6277 18.3305 69.7688 20.8686 68.8945 23.4631C67.7101 27.2702 64.7772 30.2031 63.2544 31.8105C64.1568 31.1337 65.031 30.4569 65.9616 29.8082L68.7535 27.9188C70.5866 26.6215 72.5324 25.4935 74.4501 24.3373C74.2809 23.9707 73.6605 22.6734 73.3503 20.8686C73.04 19.0637 72.9836 16.7231 74.0271 14.3542C75.1551 11.7597 77.2983 9.50368 79.2442 8.06544C81.1619 6.59899 82.7975 5.83757 82.7975 5.83757C82.7975 5.83757 83.2769 7.1348 83.4461 9.02425C83.6153 10.9419 83.4743 13.48 82.3181 15.9899C81.4721 17.7665 80.2876 19.3457 79.075 20.643C77.8624 21.9402 76.5651 22.8708 75.7473 23.5759C79.6672 21.3762 83.6153 19.233 87.7327 17.4281C87.4788 16.6667 85.8996 11.9853 88.4659 7.44501C89.8759 4.96335 92.3012 3.04569 94.388 1.83305C95.4315 1.21263 96.3621 0.761432 97.0671 0.451223C97.7439 0.141014 98.1669 0 98.1669 0C98.1669 0 98.5054 1.32545 98.449 3.2713C98.3925 5.18896 97.9413 7.69882 96.5031 10.0677C94.6136 13.1134 91.5397 15.2848 89.5939 16.4975C91.0039 15.9052 93.683 14.8054 94.6136 14.4952C95.2623 14.2696 95.7699 14.1004 96.1083 13.9876C97.3773 12.493 100.508 9.47547 104.935 8.48845C107.924 7.83983 110.801 8.26283 112.888 8.88325C114.975 9.50367 116.272 10.2651 116.272 10.2651C116.272 10.2651 115.2 11.3367 113.452 12.5776C111.703 13.7902 109.334 15.172 106.543 15.7924C102.369 16.7231 98.2233 15.736 96.3621 15.2002C95.6007 15.4822 93.3446 16.3565 92.5832 16.6385C91.991 16.8641 90.8065 17.3717 90.0169 17.7101C92.2166 17.1461 95.9673 16.5821 99.2386 17.9075C101.72 18.8945 103.412 20.7558 104.456 22.3068C105.499 23.8861 105.979 25.1833 105.979 25.1833C105.979 25.1833 105.64 25.2679 105.02 25.3807C104.428 25.4935 103.581 25.6063 102.566 25.7191C100.564 25.8601 97.9977 25.8601 95.5443 24.9295C91.0603 23.2939 88.5505 19.1765 88.1557 18.4151C84.0666 20.1918 80.1466 22.335 76.2831 24.5065C77.2701 24.0271 78.793 23.6041 80.5132 23.2939C82.2335 23.0119 84.1229 22.899 85.956 23.4349C88.5505 24.1399 90.4399 25.7755 91.6525 27.1856C92.8934 28.6238 93.4856 29.8646 93.4856 29.8646C93.4856 29.8646 92.132 30.4005 90.1579 30.7953C88.1839 31.1619 85.6458 31.5003 83.1077 30.8799C80.767 30.2876 78.8776 29.075 77.4958 27.9188C76.1139 26.7625 75.2679 25.6063 75.0141 25.2679C73.0964 26.4241 71.1788 27.5522 69.3739 28.8212L66.6103 30.6825C65.7078 31.3311 64.8336 32.0079 63.9312 32.6847C65.7642 31.5567 69.6842 29.9492 73.4067 30.4569C76.0857 30.8799 78.1444 32.2899 79.5262 33.5589C80.9081 34.828 81.6695 35.9842 81.6695 35.9842C81.6695 35.9842 80.4005 36.6892 78.4828 37.2814C76.5933 37.9019 74.0835 38.4941 71.4608 38.1275C66.7795 37.6199 63.339 34.1512 62.775 33.5307C59.2217 36.2098 55.8658 39.1427 52.6227 42.1884C53.4969 41.568 54.8505 40.6937 56.4298 40.0169C58.009 39.3119 59.9267 38.8889 61.7879 38.9171C64.4388 38.9735 66.6667 40.1297 68.2177 41.2578C69.7687 42.3858 70.643 43.4292 70.643 43.4292C70.643 43.4292 70.3328 43.6266 69.8251 43.9368C69.2893 44.2188 68.5561 44.6419 67.6537 45.0931C65.8488 45.9673 63.3672 46.7287 60.8009 46.7851C56.035 46.7851 52.1996 43.7394 51.6074 43.2036C50.0564 44.8111 48.4489 46.3339 46.9543 47.9977L44.7265 50.4794C43.965 51.2972 43.26 52.1433 42.555 53.0175C43.3164 52.2561 44.5572 51.269 46.0801 50.3948C47.6029 49.5488 49.3232 48.7874 51.269 48.6464C53.9481 48.4208 56.2606 49.295 57.9244 50.1974C59.5601 51.0998 60.5753 52.0587 60.5753 52.0587C60.5753 52.0587 59.5319 53.0457 57.8116 54.0891C56.0632 55.0761 53.8353 56.2888 51.1844 56.5708C46.4467 57.1348 42.3576 54.6249 41.6526 54.1173C40.9475 54.9915 40.2425 55.8376 39.5657 56.7118L37.5917 59.4191C36.238 61.1957 35.0536 63.0852 33.8127 64.9182C34.5178 64.1004 35.6176 62.9442 36.9712 61.8725C38.4095 60.8573 40.1015 59.9549 41.9346 59.5319C44.529 58.9679 47.0107 59.6165 48.731 60.2933C50.4794 60.9983 51.5792 61.8443 51.5792 61.8443C51.5792 61.8443 50.6204 62.916 49.0412 64.1568C47.5465 65.4258 45.2905 66.7795 42.7806 67.4281C38.1839 68.5843 33.7281 66.5257 33.0231 66.1027C31.8669 67.9921 30.7388 69.938 29.6108 71.8556C28.5956 73.8297 27.4958 75.7755 26.5369 77.7778C27.101 76.8472 28.1162 75.6063 29.357 74.4219C29.9774 73.8297 30.6824 73.2374 31.4439 72.7298C32.2335 72.2222 33.0795 71.8274 33.9819 71.5172C36.52 70.6712 38.9735 70.9532 40.7783 71.4608C42.6114 71.9684 43.7958 72.6734 43.7958 72.6734C43.7958 72.6734 43.5702 72.9554 43.2036 73.4349C42.837 73.9143 42.273 74.5629 41.568 75.2961C40.8629 76.0011 39.9887 76.7626 39.0017 77.4676C38.0429 78.1726 36.943 78.8212 35.7022 79.2724C33.4179 80.0902 31.1901 80.1466 29.3852 79.9492C27.5804 79.7518 26.2267 79.2724 25.8601 79.1314L24.4501 82.1489C23.9989 83.1641 23.6041 84.2076 23.1528 85.2228C22.7298 86.2662 22.3068 87.2814 21.8838 88.3249L20.7558 91.4834C21.2634 90.5245 21.9966 89.1145 23.1246 87.7891C24.2809 86.4636 25.6909 85.1664 27.383 84.3486C29.8082 83.1923 32.3181 83.2205 34.1793 83.5025C36.0406 83.7845 37.3096 84.3486 37.3096 84.3486C37.3096 84.3486 36.661 85.6458 35.3638 87.1968C34.1794 88.7761 32.3745 90.6373 30.0338 91.8218C25.8319 94.0214 21.0378 93.0344 20.2482 92.837C19.5149 94.9521 18.9227 97.0953 18.2741 99.2104C17.7101 101.354 17.1743 103.525 16.6385 105.697C17.4281 103.666 19.1483 99.859 22.4478 97.8567C24.7321 96.4467 27.1292 96.1365 29.075 96.2211C30.9645 96.2775 32.2899 96.6723 32.2899 96.6723C32.2899 96.6723 32.1489 97.0107 31.8669 97.5465C31.6131 98.1105 31.2465 98.872 30.7107 99.718C30.203 100.564 29.5262 101.523 28.7084 102.425C27.947 103.356 27.0445 104.23 25.9447 104.963C21.9402 107.614 17.1743 107.248 16.3283 107.107C15.9052 109.278 15.4258 111.478 15.1156 113.677L14.608 116.977C14.467 118.077 14.3824 119.205 14.2414 120.305C14.6644 118.19 16.1308 114.213 19.0355 111.844C21.1788 110.18 23.5759 109.616 25.4653 109.447C27.3548 109.278 28.7084 109.532 28.7084 109.532C28.7084 109.532 28.37 110.942 27.4958 112.747C26.6497 114.552 25.4089 116.808 23.3785 118.5C19.8252 121.602 14.9464 121.771 14.1004 121.771C13.8184 123.971 13.8184 126.227 13.6492 128.426C13.5364 130.654 13.5928 132.882 13.5646 135.11C13.8466 132.967 14.6644 128.849 17.3717 126.142C19.2329 124.224 21.5454 123.378 23.4349 123.012C25.2961 122.645 26.6779 122.702 26.6779 122.702C26.6779 122.702 26.4241 124.14 25.8601 126.029C25.5499 126.988 25.1551 128.06 24.5629 129.103C23.9989 130.175 23.3503 131.246 22.4478 132.205C19.1765 135.702 14.4106 136.464 13.5928 136.52C13.7338 140.976 14.044 145.403 14.6926 149.831C14.6644 148.759 14.7208 147.18 15.1438 145.46C15.5668 143.768 16.1873 141.963 17.3717 140.468C19.0355 138.353 21.2634 137.225 23.04 136.633C24.8449 136.041 26.1985 135.956 26.1985 135.956C26.1985 135.956 26.1985 137.394 25.8037 139.368C25.3525 141.342 24.7603 143.796 23.1246 145.911C20.361 149.774 15.7078 151.072 14.89 151.241C15.1438 153.44 15.6232 155.64 16.0462 157.812C16.4129 160.011 17.0333 162.155 17.5409 164.326C17.4281 163.254 17.3153 161.647 17.4563 159.955C17.6537 158.235 18.1613 156.345 19.1201 154.738C20.4456 152.453 22.5888 151.072 24.2809 150.254C26.0011 149.464 27.3548 149.21 27.3548 149.21C27.3548 149.21 27.383 149.577 27.4112 150.197C27.4394 150.818 27.383 151.664 27.3548 152.651C27.2702 154.625 26.7061 157.191 25.4935 159.475C23.2092 163.621 18.6689 165.51 17.8793 165.764C18.5279 167.908 19.1483 170.023 19.7969 172.166C20.5584 174.253 21.2634 176.368 22.053 178.455C21.771 177.411 21.5454 175.832 21.489 174.083C21.489 173.209 21.5172 172.307 21.6582 171.404C21.8274 170.502 22.1094 169.571 22.476 168.697C23.5759 166.244 25.4653 164.636 27.0446 163.649C28.6238 162.662 29.9774 162.239 29.9774 162.239C29.9774 162.239 30.0338 162.606 30.1466 163.198C30.2594 163.79 30.3723 164.636 30.4005 165.651C30.4569 166.638 30.3723 167.795 30.2594 169.007C30.1466 170.192 29.8646 171.433 29.357 172.645C28.9058 173.745 28.2854 174.732 27.6086 175.578C26.9599 176.424 26.2549 177.129 25.5781 177.721C24.2245 178.906 22.9554 179.583 22.5888 179.78C23.4349 181.839 24.2527 183.926 25.2397 185.9C26.1985 187.902 27.101 189.932 28.229 191.85C27.3548 189.876 26.3959 185.759 27.4676 182.177C28.3136 179.611 30.0056 177.778 31.4721 176.593C32.9385 175.409 34.2076 174.845 34.2076 174.845C34.2076 174.845 34.7152 176.199 34.9972 178.201C35.3074 180.175 35.533 182.741 34.7716 185.279C33.5871 189.82 29.639 192.668 28.934 193.119L30.5415 196.052C31.1055 197.011 31.5849 198.026 32.2335 198.928L35.8996 204.512C35.4202 203.525 34.7998 202.059 34.3486 200.395C33.9256 198.703 33.6153 196.87 34.0383 194.952C34.5742 192.301 36.0406 190.299 37.3942 188.945C38.7197 187.592 39.9041 186.915 39.9041 186.915C39.9041 186.915 40.5527 188.212 41.0603 190.158C41.4834 192.16 42.132 194.585 41.6808 197.18C40.9193 201.889 37.3096 205.217 36.661 205.725C37.9583 207.53 39.3683 209.25 40.7219 211.027L42.7806 213.677L45.0085 216.159C44.4162 215.257 43.5138 213.959 42.9216 212.296C42.3576 210.632 41.9346 208.742 42.0474 206.881C42.2166 204.23 43.401 202.087 44.5572 200.592C45.7417 199.098 46.8415 198.252 46.8415 198.252C46.8415 198.252 46.8979 198.336 46.9825 198.477C47.0671 198.618 47.1799 198.844 47.3491 199.098C47.6593 199.633 48.0823 200.367 48.4771 201.269C49.2668 203.074 49.9718 205.612 49.859 208.235C49.7744 212.916 46.5877 216.638 45.9955 217.231C48.872 220.643 52.2279 223.604 55.4145 226.706C54.0609 225.014 51.6356 221.574 51.3818 217.851C51.2972 215.116 52.2561 212.831 53.2431 211.196C54.2301 209.588 55.2171 208.629 55.2171 208.629C55.2171 208.629 56.1478 209.757 57.0784 211.534C58.0372 213.311 59.1934 215.567 59.3626 218.19C59.6729 223.012 57.022 226.988 56.5144 227.665L61.6751 231.895C62.0981 232.233 62.5211 232.6 62.9724 232.939L64.326 233.897L67.0615 235.815C66.2719 235.082 65.1438 233.954 64.1286 232.572C63.1134 231.19 62.3519 229.357 62.0135 227.496C61.5623 224.845 62.2391 222.476 63.0006 220.756C63.762 219.036 64.6362 217.964 64.6362 217.964C64.6362 217.964 65.736 218.923 66.8923 220.53C68.0767 222.138 69.3175 224.478 69.8816 226.932C70.8686 231.557 68.6407 235.928 68.2177 236.633C69.9944 237.986 71.9402 239.086 73.8297 240.243L76.6779 241.963L78.1162 242.837L79.6108 243.598C79.1596 243.288 78.6238 242.922 78.0598 242.414C77.524 241.906 76.9318 241.314 76.3677 240.637C75.2397 239.312 74.1681 237.704 73.6323 235.928C72.8144 233.446 73.2938 230.88 73.8579 229.075C74.4501 227.27 75.1833 226.086 75.1833 226.086C75.1833 226.086 75.4653 226.311 75.9165 226.706C76.3677 227.101 76.9599 227.75 77.665 228.426C79.0468 229.836 80.626 231.867 81.4157 234.405C81.5849 234.969 81.7259 235.561 81.8105 236.125C81.9233 236.661 81.9797 237.225 82.0079 237.733C82.0643 238.804 81.9797 239.791 81.8669 240.694C81.6131 242.47 81.0773 243.824 80.9081 244.191C82.9103 245.178 84.8562 246.249 86.8866 247.18L93.0344 249.774C92.1038 249.239 90.7501 248.364 89.4529 247.208C88.1557 246.08 86.8866 244.67 86.1816 242.837C85.1382 240.327 85.251 237.845 85.5894 236.012C85.956 234.151 86.5482 232.91 86.5482 232.91C86.5482 232.91 87.8173 233.615 89.3401 234.941C90.8065 236.323 92.6678 238.071 93.7676 240.44C95.7699 244.755 94.6418 249.549 94.388 250.338C96.4749 251.1 98.59 251.777 100.705 252.482C101.777 252.82 102.792 253.243 103.892 253.497L107.135 254.343C106.12 253.92 104.681 253.299 103.271 252.312C101.861 251.269 100.479 249.915 99.5206 248.28C98.1669 245.967 97.9695 243.514 98.1105 241.653C98.2515 239.763 98.7027 238.438 98.7027 238.438C98.7027 238.438 99.013 238.607 99.577 238.861C100.113 239.114 100.874 239.509 101.72 240.073C103.412 241.117 105.358 242.893 106.74 245.065C109.278 249.041 108.686 253.892 108.545 254.71L111.788 255.556C112.86 255.809 113.988 255.979 115.059 256.176C117.259 256.571 119.43 257.022 121.63 257.332C119.543 256.74 115.623 255.133 113.339 252.2C111.732 250.028 111.28 247.547 111.196 245.657C111.111 243.768 111.393 242.414 111.393 242.414C111.393 242.414 112.775 242.837 114.552 243.796C116.356 244.642 118.528 245.967 120.164 248.054C120.897 249.013 121.461 250.028 121.856 251.043C122.279 252.03 122.561 252.989 122.73 253.864C123.096 255.64 123.068 257.05 123.04 257.473L129.667 258.206C131.895 258.347 134.123 258.376 136.351 258.488C134.208 258.094 130.118 257.276 127.524 254.371C125.691 252.397 124.929 250.056 124.619 248.195C124.309 246.334 124.45 244.98 124.45 244.98C124.45 244.98 125.888 245.178 127.75 245.883C128.68 246.221 129.724 246.7 130.767 247.349C131.81 247.913 132.854 248.618 133.785 249.521C137.169 252.848 137.733 257.727 137.761 258.545C139.537 258.658 141.342 258.488 143.119 258.46L148.477 258.263L148.562 259.363L143.514 259.673Z" fill="#666666"/>
<path d="M151.438 259.447L151.523 258.347L156.881 258.545C158.658 258.573 160.462 258.77 162.239 258.629C162.267 257.811 162.86 252.933 166.215 249.605C167.146 248.674 168.189 247.998 169.233 247.434C170.276 246.785 171.32 246.334 172.25 245.967C174.112 245.262 175.55 245.065 175.55 245.065C175.55 245.065 175.691 246.447 175.381 248.28C175.07 250.141 174.309 252.482 172.476 254.456C169.882 257.36 165.792 258.178 163.649 258.573C165.877 258.488 168.105 258.46 170.333 258.291L176.96 257.558C176.932 257.135 176.904 255.725 177.27 253.948C177.439 253.074 177.721 252.115 178.144 251.128C178.567 250.113 179.103 249.097 179.836 248.139C181.444 246.052 183.644 244.726 185.448 243.88C187.225 242.893 188.607 242.498 188.607 242.498C188.607 242.498 188.889 243.852 188.804 245.742C188.72 247.631 188.268 250.113 186.661 252.284C184.377 255.217 180.485 256.824 178.37 257.417C180.57 257.106 182.741 256.627 184.941 256.26C186.041 256.063 187.14 255.894 188.212 255.64L191.455 254.794C191.314 253.976 190.722 249.126 193.26 245.149C194.642 242.978 196.616 241.201 198.28 240.158C199.126 239.622 199.887 239.227 200.423 238.945C200.987 238.691 201.297 238.522 201.297 238.522C201.297 238.522 201.748 239.819 201.889 241.737C202.03 243.598 201.833 246.052 200.479 248.364C199.521 250 198.139 251.353 196.729 252.397C195.319 253.384 193.852 254.004 192.865 254.427L196.108 253.581C197.18 253.299 198.223 252.905 199.295 252.566C201.41 251.833 203.525 251.156 205.612 250.423C205.358 249.633 204.202 244.867 206.232 240.524C207.332 238.156 209.193 236.435 210.66 235.025C212.155 233.7 213.452 232.995 213.452 232.995C213.452 232.995 214.044 234.236 214.411 236.097C214.777 237.958 214.862 240.44 213.818 242.921C213.113 244.726 211.844 246.136 210.547 247.293C209.25 248.449 207.924 249.295 206.966 249.859L213.113 247.264C215.144 246.334 217.09 245.262 219.092 244.275C218.923 243.88 218.415 242.555 218.133 240.778C217.992 239.876 217.936 238.889 217.992 237.817C218.02 237.281 218.077 236.745 218.19 236.21C218.274 235.646 218.415 235.053 218.584 234.489C219.374 231.951 220.953 229.921 222.335 228.511C223.04 227.834 223.632 227.185 224.083 226.791C224.535 226.368 224.817 226.17 224.817 226.17C224.817 226.17 225.55 227.326 226.142 229.159C226.706 230.936 227.186 233.502 226.368 236.012C225.804 237.789 224.76 239.396 223.632 240.722C223.068 241.399 222.476 241.991 221.94 242.498C221.376 243.006 220.84 243.373 220.389 243.683L221.884 242.921L223.322 242.047L226.17 240.327C228.088 239.171 230.006 238.071 231.782 236.717C231.359 236.012 229.131 231.641 230.118 227.016C230.711 224.535 231.923 222.222 233.108 220.615C234.292 219.007 235.364 218.048 235.364 218.048C235.364 218.048 236.238 219.12 236.999 220.84C237.761 222.56 238.438 224.929 237.986 227.58C237.648 229.441 236.887 231.275 235.871 232.656C234.856 234.038 233.756 235.166 232.939 235.899L235.674 233.982L237.028 233.023C237.479 232.685 237.902 232.318 238.325 231.98L243.486 227.749C242.978 227.101 240.327 223.096 240.637 218.274C240.807 215.623 241.963 213.367 242.922 211.619C243.852 209.842 244.783 208.714 244.783 208.714C244.783 208.714 245.77 209.673 246.757 211.28C247.744 212.916 248.703 215.2 248.618 217.936C248.364 221.658 245.939 225.099 244.585 226.791C247.772 223.689 251.128 220.727 254.005 217.315C253.412 216.723 250.254 213 250.141 208.319C250.028 205.696 250.705 203.187 251.523 201.353C251.918 200.451 252.341 199.69 252.651 199.182C252.82 198.928 252.933 198.703 253.017 198.562C253.102 198.421 253.158 198.336 253.158 198.336C253.158 198.336 254.258 199.182 255.443 200.677C256.599 202.171 257.783 204.286 257.953 206.965C258.065 208.855 257.671 210.744 257.078 212.38C256.514 214.044 255.584 215.313 254.992 216.243L257.219 213.762L259.278 211.111C260.632 209.334 262.014 207.614 263.339 205.809C262.69 205.302 259.081 201.974 258.319 197.264C257.896 194.67 258.517 192.216 258.94 190.242C259.447 188.297 260.096 186.999 260.096 186.999C260.096 186.999 261.28 187.704 262.606 189.03C263.931 190.383 265.398 192.386 265.962 195.036C266.385 196.954 266.074 198.787 265.651 200.479C265.2 202.143 264.58 203.61 264.1 204.597L267.766 199.013C268.415 198.11 268.895 197.095 269.459 196.136L271.066 193.203C270.361 192.752 266.413 189.904 265.228 185.364C264.467 182.826 264.693 180.259 265.003 178.285C265.285 176.283 265.792 174.929 265.792 174.929C265.792 174.929 267.061 175.493 268.528 176.678C269.994 177.862 271.686 179.667 272.532 182.262C273.576 185.843 272.645 189.989 271.771 191.934C272.899 190.017 273.83 187.986 274.76 185.984C275.747 183.982 276.565 181.923 277.411 179.864C277.045 179.667 275.775 179.018 274.422 177.806C273.745 177.214 273.04 176.48 272.391 175.663C271.715 174.817 271.094 173.83 270.643 172.73C270.135 171.517 269.853 170.276 269.741 169.092C269.628 167.907 269.543 166.751 269.6 165.736C269.628 164.749 269.741 163.903 269.853 163.282C269.966 162.69 270.023 162.324 270.023 162.324C270.023 162.324 271.348 162.747 272.955 163.734C274.563 164.721 276.424 166.328 277.524 168.782C277.919 169.656 278.201 170.558 278.342 171.489C278.483 172.391 278.511 173.294 278.511 174.168C278.483 175.888 278.257 177.496 277.947 178.539C278.765 176.452 279.442 174.337 280.203 172.25C280.88 170.135 281.5 167.992 282.121 165.849C281.331 165.595 276.791 163.705 274.506 159.56C273.322 157.304 272.73 154.738 272.645 152.735C272.617 151.748 272.561 150.874 272.589 150.282C272.589 149.661 272.645 149.295 272.645 149.295C272.645 149.295 273.999 149.549 275.719 150.338C277.411 151.128 279.583 152.51 280.88 154.822C281.839 156.43 282.346 158.319 282.544 160.039C282.685 161.76 282.6 163.339 282.459 164.41C282.967 162.239 283.587 160.096 283.954 157.896C284.377 155.696 284.828 153.525 285.11 151.325C284.292 151.156 279.611 149.831 276.875 145.995C275.268 143.88 274.647 141.399 274.196 139.453C273.773 137.507 273.801 136.04 273.801 136.04C273.801 136.04 275.183 136.125 276.96 136.717C278.765 137.31 280.964 138.409 282.628 140.553C283.813 142.047 284.433 143.852 284.856 145.544C285.279 147.236 285.336 148.815 285.307 149.915C285.928 145.516 286.238 141.06 286.407 136.604C285.561 136.52 280.823 135.787 277.552 132.29C276.65 131.331 276.001 130.259 275.437 129.188C274.873 128.116 274.45 127.044 274.14 126.114C273.576 124.224 273.322 122.786 273.322 122.786C273.322 122.786 274.704 122.701 276.565 123.096C278.455 123.463 280.767 124.309 282.628 126.227C285.336 128.934 286.153 133.051 286.435 135.194C286.407 132.967 286.464 130.739 286.351 128.511C286.182 126.283 286.182 124.055 285.9 121.855C285.082 121.884 280.175 121.714 276.622 118.584C274.563 116.892 273.322 114.664 272.504 112.831C271.63 111.026 271.292 109.616 271.292 109.616C271.292 109.616 272.645 109.391 274.535 109.532C276.424 109.701 278.821 110.265 280.964 111.929C283.869 114.326 285.307 118.274 285.759 120.389C285.646 119.289 285.533 118.161 285.392 117.061L284.884 113.762C284.602 111.562 284.123 109.391 283.672 107.191C282.826 107.332 278.06 107.699 274.055 105.048C272.955 104.315 272.053 103.44 271.292 102.51C270.474 101.607 269.825 100.677 269.289 99.8025C268.782 98.9564 268.415 98.1668 268.133 97.631C267.851 97.0952 267.71 96.7568 267.71 96.7568C267.71 96.7568 269.036 96.3619 270.925 96.3055C272.843 96.2209 275.268 96.5312 277.552 97.9412C280.823 99.9435 282.572 103.751 283.362 105.781C282.854 103.61 282.29 101.466 281.726 99.2948C281.049 97.1798 280.485 95.0083 279.752 92.9214C278.962 93.1471 274.14 94.1059 269.966 91.9062C267.625 90.7218 265.821 88.8605 264.636 87.2813C263.367 85.7302 262.69 84.433 262.69 84.433C262.69 84.433 263.959 83.8972 265.821 83.587C267.682 83.305 270.192 83.2768 272.617 84.433C274.309 85.2508 275.719 86.5481 276.875 87.8735C278.003 89.199 278.737 90.609 279.244 91.5678L278.116 88.4093C277.721 87.3659 277.27 86.3507 276.847 85.3072C276.424 84.292 276.029 83.2486 275.55 82.2334L274.14 79.2159C273.745 79.3569 272.391 79.8363 270.615 80.0337C268.81 80.2311 266.582 80.1747 264.298 79.3569C263.057 78.9057 261.957 78.257 260.998 77.552C260.039 76.847 259.137 76.1138 258.432 75.3806C257.727 74.6756 257.191 74.0269 256.796 73.5193C256.43 73.0399 256.204 72.7579 256.204 72.7579C256.204 72.7579 257.389 72.0529 259.222 71.5453C261.027 71.0376 263.48 70.7556 266.018 71.6017C266.92 71.9119 267.766 72.3349 268.556 72.8143C269.318 73.3219 270.023 73.9141 270.643 74.5063C271.884 75.719 272.927 76.9316 273.463 77.8622C272.504 75.86 271.404 73.9141 270.389 71.9401C269.261 70.0224 268.133 68.1048 266.977 66.1871C266.244 66.5819 261.816 68.6406 257.219 67.5126C254.71 66.8639 252.453 65.5385 250.959 64.2413C249.38 63.0004 248.421 61.9288 248.421 61.9288C248.421 61.9288 249.521 61.111 251.269 60.3778C253.017 59.6727 255.471 59.0241 258.065 59.6163C259.898 60.0111 261.591 60.9418 263.029 61.957C264.411 63.0004 265.482 64.1566 266.187 65.0027C264.975 63.1414 263.762 61.252 262.408 59.5035L260.434 56.7962C259.757 55.922 259.052 55.0478 258.347 54.2018C257.642 54.7094 253.553 57.1911 248.816 56.6552C246.193 56.3732 243.965 55.1606 242.188 54.1736C240.468 53.1301 239.425 52.1431 239.425 52.1431C239.425 52.1431 240.412 51.1843 242.076 50.2819C243.711 49.3794 246.024 48.5052 248.731 48.7308C250.649 48.8718 252.397 49.6332 253.92 50.4793C255.443 51.3253 256.684 52.3123 257.445 53.102C256.768 52.2277 256.035 51.3817 255.274 50.5639L253.046 48.0822C251.551 46.4184 249.944 44.8955 248.393 43.2881C247.8 43.8239 243.965 46.8696 239.199 46.8696C236.633 46.8132 234.123 46.0517 232.346 45.1775C231.444 44.7545 230.711 44.3033 230.175 44.0213C229.639 43.7111 229.357 43.5137 229.357 43.5137C229.357 43.5137 230.231 42.4421 231.782 41.3422C233.333 40.2142 235.533 39.058 238.212 39.0016C240.073 38.9734 241.991 39.3964 243.57 40.1014C245.149 40.8064 246.503 41.6524 247.377 42.2728C244.134 39.2272 240.778 36.2943 237.225 33.6152C236.689 34.2356 233.249 37.7043 228.539 38.2119C225.917 38.5785 223.407 37.9863 221.517 37.3659C219.6 36.7737 218.331 36.0687 218.331 36.0687C218.331 36.0687 219.064 34.9124 220.474 33.6434C221.856 32.3744 223.914 30.9643 226.593 30.5413C230.288 30.0337 234.208 31.6411 236.069 32.7692C235.166 32.1206 234.292 31.4155 233.39 30.7669L230.626 28.9057C228.793 27.6084 226.875 26.4804 224.986 25.3524C224.76 25.6908 223.886 26.8188 222.504 28.0033C221.122 29.1595 219.233 30.3721 216.892 30.9643C214.326 31.5848 211.816 31.2745 209.842 30.8797C207.868 30.4849 206.514 29.9491 206.514 29.9491C206.514 29.9491 207.107 28.7083 208.347 27.27C209.588 25.8318 211.478 24.1961 214.044 23.5193C215.877 23.0117 217.795 23.0963 219.487 23.3783C221.179 23.6885 222.73 24.1115 223.717 24.5909C219.825 22.4195 215.905 20.2762 211.844 18.4996C211.45 19.261 208.94 23.3783 204.456 25.014C202.002 25.9164 199.436 25.9446 197.434 25.8036C196.447 25.719 195.601 25.578 194.98 25.4652C194.388 25.3524 194.021 25.2678 194.021 25.2678C194.021 25.2678 194.473 23.9705 195.544 22.3913C196.616 20.812 198.28 18.979 200.761 17.992C204.005 16.6665 207.783 17.2305 209.983 17.7946C209.193 17.4562 208.009 16.9203 207.417 16.7229C206.627 16.4409 204.371 15.5667 203.638 15.2847C201.777 15.8205 197.659 16.8075 193.457 15.8769C190.666 15.2565 188.297 13.9029 186.548 12.662C184.8 11.4494 183.728 10.3495 183.728 10.3495C183.728 10.3495 185.025 9.58814 187.112 8.96772C189.199 8.3473 192.076 7.92428 195.065 8.5729C199.464 9.53173 202.594 12.5774 203.892 14.0721C204.23 14.1849 204.738 14.3541 205.386 14.5797C206.317 14.9181 208.996 16.0179 210.406 16.5819C208.46 15.3693 205.386 13.1978 203.497 10.1521C202.03 7.78327 201.607 5.27341 201.551 3.35576C201.495 1.4381 201.833 0.0844727 201.833 0.0844727C201.833 0.0844727 202.256 0.22547 202.933 0.535678C203.61 0.817686 204.569 1.26891 205.612 1.91752C207.699 3.13016 210.124 5.0478 211.534 7.52947C214.1 12.0698 212.521 16.7229 212.267 17.5126C216.385 19.3174 220.333 21.4607 224.253 23.6603C223.407 22.9553 222.138 22.0247 220.925 20.7274C219.712 19.4302 218.5 17.851 217.682 16.0743C216.526 13.5362 216.356 11.0264 216.554 9.10872C216.723 7.19107 217.202 5.92202 217.202 5.92202C217.202 5.92202 218.838 6.71165 220.756 8.14989C222.673 9.58813 224.845 11.8442 225.973 14.4387C227.016 16.8075 226.988 19.12 226.65 20.9531C226.34 22.7579 225.719 24.0551 225.55 24.4217C227.468 25.578 229.413 26.7342 231.246 28.0033L234.038 29.8927C234.969 30.5413 235.843 31.2181 236.746 31.895C235.223 30.3157 232.29 27.3546 231.105 23.5475C230.231 20.9248 230.372 18.415 230.767 16.5255C231.162 14.6361 231.782 13.4234 231.782 13.4234C231.782 13.4234 233.305 14.4105 235.054 16.0461C236.774 17.7382 238.691 20.1916 239.509 22.8707C240.919 27.9468 238.353 32.0642 237.902 32.7692C241.483 35.4765 244.867 38.4375 248.139 41.5114C247.434 40.6654 246.475 39.3964 245.601 37.8453C244.726 36.2943 243.852 34.5458 243.486 32.6C242.95 29.8363 243.401 27.3546 243.993 25.5498C244.585 23.7449 245.375 22.5887 245.375 22.5887C245.375 22.5887 245.713 22.8707 246.277 23.3783C246.842 23.8859 247.575 24.6474 248.308 25.6062C249.803 27.4956 251.495 30.0619 251.918 32.9384C252.764 38.0709 249.718 41.878 249.182 42.5267C250.733 44.1341 252.369 45.6851 253.864 47.3772L256.12 49.8871C256.881 50.7049 257.614 51.5791 258.291 52.4533C257.727 51.4945 256.909 50.1409 256.204 48.5334C255.499 46.926 254.935 44.9801 254.738 43.0625C254.484 40.2988 255.245 37.8735 256.091 36.1251C256.909 34.3766 257.812 33.3332 257.812 33.3332C257.812 33.3332 259.052 34.6586 260.35 36.6891C261.703 38.6913 262.916 41.5678 263.085 44.3879C263.339 49.5768 259.786 53.0455 259.222 53.6096C259.927 54.4838 260.632 55.358 261.337 56.2322L263.311 58.9395C264.664 60.7162 265.877 62.6338 267.118 64.4951C266.638 63.508 266.018 62.0416 265.539 60.3213C265.003 58.6293 264.608 56.7117 264.721 54.7376C264.862 51.9457 265.821 49.6615 266.864 48.0258C267.879 46.3902 268.895 45.4595 268.895 45.4595C268.895 45.4595 269.994 46.8978 271.066 49.0692C272.053 51.2971 273.096 54.1736 272.843 57.0501C272.42 62.2672 268.584 65.2283 267.936 65.7359C269.12 67.6536 270.248 69.5994 271.376 71.5171C272.42 73.5193 273.519 75.4652 274.478 77.4956C274.168 76.424 273.632 74.9576 273.35 73.1809C273.209 72.3067 273.096 71.3761 273.068 70.4172C273.012 69.4584 273.04 68.4996 273.209 67.5407C273.632 64.8053 274.958 62.6056 276.17 61.0828C277.355 59.5881 278.483 58.7985 278.483 58.7985C278.483 58.7985 278.737 59.1651 279.047 59.8701C279.357 60.547 279.78 61.5058 280.175 62.662C280.541 63.8182 280.936 65.1155 281.105 66.5255C281.275 67.9356 281.275 69.402 281.021 70.7838C280.57 73.3219 279.244 75.2396 277.947 76.565C276.678 77.8904 275.465 78.6237 275.099 78.8493L276.537 81.895C276.988 82.9102 277.411 83.9818 277.834 84.997C278.257 86.0405 278.708 87.0557 279.103 88.1273L280.231 91.314C279.977 90.2424 279.752 88.6631 279.639 86.8865C279.526 85.138 279.611 83.164 280.175 81.2463C280.908 78.5673 282.431 76.565 283.813 75.2114C285.195 73.8577 286.407 73.2091 286.407 73.2091C286.407 73.2091 287.112 74.873 287.676 77.2136C288.127 79.5825 288.409 82.6564 287.563 85.3919C285.928 90.3834 281.5 92.3574 280.739 92.6958C281.472 94.8109 282.064 96.9824 282.741 99.1256C283.305 101.297 283.869 103.469 284.377 105.668C284.123 103.497 284.01 99.2948 285.448 95.6851C286.492 93.1189 288.325 91.2576 289.82 90.1014C291.342 88.9169 292.611 88.4093 292.611 88.4093C292.611 88.4093 292.752 88.8323 292.922 89.5656C293.091 90.2988 293.26 91.3422 293.345 92.5548C293.457 93.7675 293.486 95.1211 293.373 96.503C293.204 97.913 292.865 99.323 292.273 100.62C290.186 105.358 285.42 106.853 284.659 107.078C285.11 109.278 285.589 111.478 285.871 113.705L286.379 117.033C286.52 118.133 286.605 119.261 286.746 120.389C286.858 118.189 287.056 114.044 289.03 110.575C290.327 108.15 292.329 106.542 293.965 105.555C295.629 104.568 296.954 104.202 296.954 104.202C296.954 104.202 297.265 105.978 297.236 108.404C297.18 110.829 296.644 113.875 295.234 116.328C292.47 120.784 287.704 121.714 286.887 121.855C287.169 124.083 287.169 126.339 287.338 128.567C287.451 130.823 287.394 133.051 287.422 135.307C287.676 133.136 288.55 129.018 290.778 125.832C292.442 123.576 294.585 122.222 296.306 121.432C298.054 120.643 299.408 120.445 299.408 120.445C299.408 120.445 299.577 122.25 299.182 124.647C299.013 125.832 298.731 127.185 298.28 128.511C297.829 129.836 297.123 131.134 296.277 132.262C293.119 136.379 288.184 136.717 287.366 136.774C287.225 141.258 286.887 145.742 286.266 150.197C286.576 149.154 287.056 147.631 287.733 145.995C288.409 144.36 289.481 142.668 290.778 141.201C292.64 139.143 294.924 138.043 296.785 137.479C298.618 136.886 300 136.858 300 136.858C300 136.858 299.887 138.663 299.267 141.004C298.703 143.344 297.406 146.193 295.488 148.223C291.794 151.917 286.887 151.664 286.069 151.636C285.787 153.863 285.336 156.063 284.913 158.263C284.546 160.491 283.926 162.634 283.418 164.833C283.813 163.818 284.461 162.352 285.392 160.829C286.294 159.306 287.422 157.699 288.945 156.43C291.117 154.625 293.457 153.807 295.347 153.44C297.236 153.074 298.59 153.215 298.59 153.215C298.59 153.215 298.505 153.666 298.336 154.399C298.139 155.132 297.885 156.148 297.406 157.247C296.447 159.475 295.065 162.211 292.752 163.987C288.663 167.231 283.869 166.413 283.051 166.272C282.403 168.415 281.782 170.586 281.105 172.73C280.344 174.845 279.639 176.988 278.821 179.075C279.385 178.116 280.118 176.734 281.218 175.324C281.754 174.619 282.374 173.914 283.08 173.237C283.756 172.56 284.461 171.912 285.279 171.376C287.592 169.825 290.102 169.289 292.019 169.176C293.965 169.064 295.29 169.317 295.29 169.317C295.29 169.317 295.178 169.74 294.867 170.445C294.585 171.15 294.162 172.109 293.57 173.181C292.978 174.253 292.301 175.409 291.371 176.48C290.44 177.552 289.368 178.539 288.184 179.3C287.084 179.977 285.984 180.429 284.913 180.682C283.813 180.936 282.769 180.993 281.867 180.964C280.034 180.936 278.652 180.541 278.257 180.4C277.383 182.487 276.593 184.574 275.578 186.576C274.619 188.607 273.689 190.665 272.561 192.583C273.942 190.863 276.368 187.479 279.949 185.73C282.375 184.461 284.913 184.207 286.83 184.32C288.748 184.405 290.045 184.856 290.045 184.856C290.045 184.856 289.312 186.492 287.958 188.494C286.576 190.468 284.405 192.696 281.895 193.937C277.101 196.08 272.589 194.162 271.827 193.852L270.192 196.813C269.628 197.8 269.148 198.815 268.5 199.718L264.805 205.358C265.51 204.54 266.61 203.356 267.992 202.256C269.374 201.128 271.122 200.113 272.899 199.379C275.465 198.392 278.003 198.449 279.893 198.759C281.782 199.069 283.023 199.661 283.023 199.661C283.023 199.661 282.092 201.212 280.541 203.046C279.047 204.907 276.537 206.824 273.858 207.727C268.923 209.362 264.721 206.965 263.988 206.542C262.662 208.347 261.252 210.096 259.898 211.901L257.84 214.551L255.584 217.061C256.402 216.328 257.727 215.397 259.193 214.41C260.66 213.423 262.408 212.521 264.326 212.07C267.033 211.421 269.6 211.816 271.461 212.352C273.294 212.888 274.45 213.593 274.45 213.593C274.45 213.593 274.394 213.677 274.253 213.846C274.14 214.016 273.942 214.241 273.689 214.523C273.181 215.059 272.42 215.82 271.517 216.61C269.656 218.189 267.174 219.966 264.382 220.558C259.193 221.545 255.274 218.641 254.625 218.133C251.72 221.573 248.336 224.563 245.121 227.665C246.87 226.368 250.423 224.168 254.399 223.745C257.107 223.378 259.56 224.027 261.337 224.76C263.113 225.522 264.185 226.368 264.185 226.368C264.185 226.368 262.944 227.665 260.998 229.103C259.052 230.513 256.176 231.81 253.384 232.092C248.252 232.6 244.67 229.188 244.05 228.624L238.861 232.91C238.438 233.249 238.015 233.643 237.563 233.982L236.182 234.941L233.418 236.886C234.377 236.379 235.843 235.702 237.535 235.166C239.256 234.63 241.089 234.095 243.063 234.095C245.826 234.095 248.223 235.053 249.887 236.012C251.551 236.971 252.538 237.958 252.538 237.958C252.538 237.958 251.1 239.058 248.957 240.186C246.813 241.286 243.993 242.498 241.089 242.301C235.843 242.075 232.741 238.325 232.205 237.704C230.4 239.058 228.455 240.186 226.537 241.342L223.66 243.091L222.222 243.965L220.728 244.726C221.235 244.529 221.884 244.36 222.617 244.106C223.322 243.852 224.14 243.626 224.986 243.429C226.706 243.034 228.68 242.837 230.654 243.091C233.474 243.514 235.618 244.613 237.169 245.77C238.691 246.898 239.537 247.998 239.537 247.998C239.537 247.998 239.171 248.251 238.522 248.618C237.874 248.985 236.971 249.492 235.787 249.887C233.503 250.705 230.485 251.41 227.693 251.043C227.045 250.959 226.452 250.818 225.888 250.648C225.324 250.451 224.788 250.197 224.281 249.943C223.294 249.408 222.448 248.787 221.771 248.195C220.389 246.954 219.6 245.77 219.374 245.431C217.372 246.418 215.398 247.518 213.339 248.421L207.135 251.015C208.178 250.733 209.757 250.366 211.506 250.225C213.283 250.084 215.285 250.169 217.174 250.564C219.853 251.184 221.94 252.651 223.35 253.976C224.76 255.302 225.465 256.486 225.465 256.486C225.465 256.486 223.83 257.247 221.489 257.868C219.205 258.573 216.074 258.798 213.339 258.037C208.319 256.655 206.176 252.312 205.809 251.551C203.694 252.312 201.551 252.989 199.436 253.722C198.364 254.061 197.321 254.484 196.221 254.766L192.95 255.612C194.021 255.471 195.629 255.386 197.406 255.443C199.154 255.443 201.128 255.668 202.961 256.345C205.584 257.332 207.473 259.052 208.714 260.547C209.955 262.013 210.491 263.254 210.491 263.254C210.491 263.254 210.068 263.452 209.334 263.593C208.601 263.762 207.558 263.959 206.373 264.128C203.948 264.382 200.931 264.523 198.252 263.395C193.401 261.337 191.765 256.74 191.483 255.978L188.212 256.824C187.112 257.078 186.012 257.247 184.913 257.445C182.713 257.84 180.513 258.291 178.285 258.629C180.485 258.601 184.631 258.629 188.156 260.519C190.637 261.76 192.301 263.621 193.345 265.228C194.388 266.836 194.811 268.133 194.811 268.133C194.811 268.133 193.063 268.528 190.637 268.641C188.212 268.612 185.138 268.218 182.657 266.892C181.528 266.272 180.598 265.538 179.865 264.721C179.131 263.903 178.539 263 178.116 262.211C177.242 260.575 176.932 259.193 176.847 258.77L170.135 259.504C167.908 259.645 165.651 259.673 163.395 259.786C165.567 259.955 169.712 260.801 172.984 262.831C175.296 264.354 176.734 266.469 177.58 268.189C178.426 269.91 178.68 271.263 178.68 271.263C178.68 271.263 176.875 271.404 174.478 271.179C173.266 271.066 171.94 270.84 170.587 270.474C169.233 270.022 167.908 269.402 166.751 268.556C162.521 265.482 162.014 260.66 161.901 259.842C160.096 259.955 158.291 259.785 156.486 259.757L151.438 259.447Z" fill="#666666"/>
</svg>
