<svg width="151" height="150" viewBox="0 0 151 150" fill="none" xmlns="http://www.w3.org/2000/svg">
<g clip-path="url(#clip0_55_20620)">
<path d="M27.5069 70.8574C27.5069 70.2734 27.3122 69.9814 26.9229 69.6894L17.7735 62.6814C17.3842 62.3894 16.9949 62.3894 16.6055 62.6814L12.2255 65.9907C10.0842 65.2121 8.23486 64.8227 6.67753 64.8227C3.9522 64.8227 2.2002 66.1854 2.2002 68.3267C2.2002 70.4681 3.85486 73.2907 6.77486 76.2107V82.9267C6.77486 83.4134 7.06686 83.7054 7.55353 83.7054H17.1895C21.2775 85.9441 25.0735 87.1121 27.7015 87.1121C30.4269 87.1121 32.1789 85.7494 32.1789 83.6081C32.1789 81.4667 30.5242 78.6441 27.6042 75.7241V70.8574H27.5069ZM26.9229 82.1481C26.9229 82.6347 26.6309 82.9267 26.1442 82.9267H17.2869C13.5882 80.8827 10.0842 78.3521 7.4562 75.8214V71.0521C7.4562 70.4681 7.65086 70.1761 8.0402 69.8841L12.6149 66.4774C17.1895 68.2294 23.4189 72.2201 26.9229 75.7241V82.1481Z" fill="#FF681B"/>
<path d="M60.1134 67.9375H56.6094V81.6615H60.1134V67.9375Z" fill="#FF681B"/>
<path d="M58.5557 62.1948H58.2637C57.0957 62.1948 56.2197 63.0708 56.2197 64.3362C56.2197 65.6015 57.0957 66.4775 58.2637 66.4775H58.5557C59.6264 66.3802 60.5997 65.4068 60.5997 64.2388C60.5997 63.0708 59.6264 62.1948 58.5557 62.1948Z" fill="#FF681B"/>
<path d="M44.7348 78.4495L53.7868 70.7602V67.9375H39.6735V71.0522H48.4335V71.2468L39.2842 78.8388V78.9362V81.6615H54.2735V78.5468H44.7348V78.4495Z" fill="#FF681B"/>
<path d="M74.4215 69.787H74.2269C73.4482 68.4243 71.8909 67.5483 69.8469 67.5483H69.7495C65.5642 67.5483 62.5469 70.5657 62.5469 74.751C62.5469 78.9363 65.5642 81.9537 69.7495 81.9537C72.2802 81.9537 73.5455 80.6883 74.1295 79.715H74.3242V81.6617C74.3242 83.803 72.8642 84.971 70.3335 84.971C68.3869 84.971 66.9269 84.2897 65.7589 82.927L65.6615 82.8297L63.1309 84.971L63.2282 85.0683C65.0775 87.1123 67.4135 88.0857 70.4309 88.0857H70.5282C75.1029 88.0857 77.9255 85.6523 77.9255 81.6617V67.9377H74.5189V69.787H74.4215ZM74.4215 73.875V75.627C74.4215 77.4763 72.7669 78.839 70.5282 78.839H70.3335C67.9002 78.839 66.1482 77.087 66.1482 74.751C66.1482 72.415 67.9002 70.663 70.3335 70.663H70.5282C72.7669 70.663 74.4215 72.0257 74.4215 73.875Z" fill="#FF681B"/>
<path d="M124.256 67.6455H124.159C121.531 67.6455 120.265 68.9108 119.681 69.9815H119.487V68.0348H116.08V81.7588H119.584V74.5562C119.584 72.4148 121.239 70.8575 123.38 70.8575H123.672C125.911 70.8575 127.273 72.4148 127.273 75.0428V81.8562H130.777V74.5562C130.777 70.2735 128.247 67.6455 124.256 67.6455Z" fill="#FF681B"/>
<path d="M144.794 67.9377V69.787H144.599C143.82 68.4243 142.263 67.5483 140.219 67.5483H140.122C135.936 67.5483 132.919 70.5657 132.919 74.751C132.919 78.9363 135.936 81.9537 140.122 81.9537C142.652 81.9537 143.918 80.6883 144.502 79.715H144.696V81.6617C144.696 83.803 143.236 84.971 140.706 84.971H140.608C138.662 84.971 137.202 84.2897 136.034 82.927L135.936 82.8297L133.406 84.971L133.503 85.0683C135.352 87.1123 137.688 88.0857 140.706 88.0857H140.803C145.378 88.0857 148.2 85.6523 148.2 81.6617V67.9377H144.794ZM144.794 73.875V75.627C144.794 77.4763 143.139 78.839 140.9 78.839H140.706C138.272 78.839 136.52 77.087 136.52 74.751C136.52 72.415 138.272 70.663 140.706 70.663H140.9C143.042 70.663 144.794 72.0257 144.794 73.875Z" fill="#FF681B"/>
<path d="M88.9237 67.6455C86.8797 67.6455 85.2251 68.4242 84.3491 69.7868H84.1544V62.1948H80.6504V81.7588H84.0571V79.9095H84.2517C84.8357 80.8828 86.0037 82.1482 88.6317 82.1482H88.8264C93.0117 82.1482 96.0291 79.1308 96.0291 74.9455C96.1264 70.6628 93.1091 67.6455 88.9237 67.6455ZM92.5251 74.8482C92.5251 77.2815 90.7731 79.0335 88.3397 79.0335H88.1451C85.8091 79.0335 84.1544 77.6708 84.1544 75.8215V73.9722C84.1544 72.1228 85.8091 70.7602 88.1451 70.7602H88.3397C90.7731 70.7602 92.5251 72.5122 92.5251 74.8482Z" fill="#FF681B"/>
<path d="M109.754 69.787H109.559C108.975 68.8137 107.807 67.5483 105.179 67.5483H105.082C100.896 67.5483 97.8789 70.5657 97.8789 74.751C97.8789 78.9363 100.896 81.9537 105.082 81.9537H105.179C107.807 81.9537 109.072 80.6883 109.559 79.715H109.754V81.5643H113.16V67.9377H109.754V69.787ZM109.754 73.875V75.7243C109.754 77.5737 108.099 78.9363 105.763 78.9363H105.568C103.135 78.9363 101.383 77.1843 101.383 74.751C101.383 72.3177 103.135 70.5657 105.568 70.5657H105.763C108.099 70.663 109.754 72.0257 109.754 73.875Z" fill="#FF681B"/>
</g>
<defs>
<clipPath id="clip0_55_20620">
<rect width="146" height="26.28" fill="white" transform="translate(2.2002 62)"/>
</clipPath>
</defs>
</svg>
