<svg width="24" height="25" viewBox="0 0 24 25" fill="none" xmlns="http://www.w3.org/2000/svg">
<path d="M16.8066 8.81527C17.403 8.81527 17.8866 8.33174 17.8866 7.73527C17.8866 7.13881 17.403 6.65527 16.8066 6.65527C16.2101 6.65527 15.7266 7.13881 15.7266 7.73527C15.7266 8.33174 16.2101 8.81527 16.8066 8.81527Z" fill="#E6E1E5"/>
<path d="M11.9965 7.91895C11.0825 7.91895 10.1889 8.18999 9.42893 8.69781C8.66893 9.20562 8.07658 9.9274 7.72679 10.7719C7.377 11.6163 7.28548 12.5456 7.4638 13.4421C7.64212 14.3385 8.08228 15.162 8.72861 15.8083C9.37494 16.4547 10.1984 16.8948 11.0949 17.0731C11.9914 17.2515 12.9206 17.1599 13.7651 16.8102C14.6095 16.4604 15.3313 15.868 15.8391 15.108C16.347 14.348 16.618 13.4545 16.618 12.5404C16.618 11.3147 16.1311 10.1393 15.2644 9.27255C14.3977 8.40585 13.2222 7.91895 11.9965 7.91895ZM11.9965 15.5404C11.4032 15.5404 10.8231 15.3645 10.3298 15.0349C9.83644 14.7052 9.45193 14.2367 9.22486 13.6885C8.9978 13.1403 8.93839 12.5371 9.05415 11.9552C9.1699 11.3732 9.45562 10.8387 9.87518 10.4191C10.2947 9.99957 10.8293 9.71384 11.4112 9.59809C11.9932 9.48233 12.5964 9.54174 13.1446 9.76881C13.6927 9.99587 14.1613 10.3804 14.4909 10.8737C14.8206 11.3671 14.9965 11.9471 14.9965 12.5404C14.9965 13.3361 14.6804 14.0992 14.1178 14.6618C13.5552 15.2244 12.7922 15.5404 11.9965 15.5404Z" fill="#E6E1E5"/>
<path d="M12 5.16154C14.403 5.16154 14.688 5.17054 15.6368 5.21404C16.2074 5.22081 16.7726 5.32559 17.3077 5.52379C17.696 5.67356 18.0486 5.90295 18.3428 6.1972C18.6371 6.49145 18.8665 6.84404 19.0163 7.23229C19.2145 7.76744 19.3192 8.33266 19.326 8.90329C19.3695 9.85204 19.3785 10.137 19.3785 12.5408C19.3785 14.9445 19.3695 15.228 19.326 16.1768C19.3192 16.7474 19.2145 17.3126 19.0163 17.8478C18.8665 18.236 18.6371 18.5886 18.3428 18.8829C18.0486 19.1771 17.696 19.4065 17.3077 19.5563C16.7726 19.7545 16.2074 19.8593 15.6368 19.866C14.688 19.9095 14.403 19.9185 12 19.9185C9.597 19.9185 9.312 19.9095 8.36325 19.866C7.79262 19.8593 7.2274 19.7545 6.69225 19.5563C6.304 19.4065 5.95141 19.1771 5.65716 18.8829C5.36291 18.5886 5.13352 18.236 4.98375 17.8478C4.78555 17.3126 4.68077 16.7474 4.674 16.1768C4.6305 15.228 4.6215 14.943 4.6215 12.54C4.6215 10.137 4.6305 9.85204 4.674 8.90329C4.68077 8.33266 4.78555 7.76744 4.98375 7.23229C5.13352 6.84404 5.36291 6.49145 5.65716 6.1972C5.95141 5.90295 6.304 5.67356 6.69225 5.52379C7.2274 5.32559 7.79262 5.22081 8.36325 5.21404C9.312 5.17054 9.597 5.16154 12 5.16154ZM12 3.54004C9.55575 3.54004 9.249 3.55054 8.289 3.59404C7.54258 3.60911 6.80412 3.75062 6.105 4.01254C5.50704 4.24376 4.96399 4.59737 4.51066 5.0507C4.05733 5.50403 3.70372 6.04708 3.4725 6.64504C3.21049 7.34439 3.06899 8.08312 3.054 8.82979C3.0105 9.78979 3 10.095 3 12.54C3 14.985 3.0105 15.291 3.054 16.251C3.06907 16.9975 3.21058 17.7359 3.4725 18.435C3.70372 19.033 4.05733 19.576 4.51066 20.0294C4.96399 20.4827 5.50704 20.8363 6.105 21.0675C6.80435 21.3295 7.54308 21.4711 8.28975 21.486C9.24975 21.5295 9.55575 21.54 12 21.54C14.4443 21.54 14.751 21.5295 15.711 21.486C16.4577 21.4711 17.1964 21.3295 17.8958 21.0675C18.4937 20.8363 19.0368 20.4827 19.4901 20.0294C19.9434 19.576 20.297 19.033 20.5282 18.435C20.79 17.7356 20.9313 16.9969 20.946 16.2503C20.9895 15.2903 21 14.985 21 12.54C21 10.095 20.9895 9.78904 20.946 8.82904C20.9309 8.08262 20.7894 7.34416 20.5275 6.64504C20.2963 6.04708 19.9427 5.50403 19.4893 5.0507C19.036 4.59737 18.493 4.24376 17.895 4.01254C17.1956 3.75079 16.4569 3.60954 15.7103 3.59479C14.7503 3.54979 14.445 3.54004 12 3.54004Z" fill="#E6E1E5"/>
</svg>
