<svg width="25" height="25" viewBox="0 0 25 25" fill="none" xmlns="http://www.w3.org/2000/svg">
<g clip-path="url(#clip0_192_8270)">
<path d="M19.73 15.4043L17.19 15.1143C16.58 15.0443 15.98 15.2543 15.55 15.6843L13.71 17.5243C10.88 16.0843 8.56004 13.7743 7.12004 10.9343L8.97004 9.0843C9.40004 8.6543 9.61004 8.0543 9.54004 7.4443L9.25004 4.9243C9.13004 3.9143 8.28004 3.1543 7.26004 3.1543H5.53004C4.40004 3.1543 3.46004 4.0943 3.53004 5.2243C4.06004 13.7643 10.89 20.5843 19.42 21.1143C20.55 21.1843 21.49 20.2443 21.49 19.1143V17.3843C21.5 16.3743 20.74 15.5243 19.73 15.4043Z" fill="#4740E3"/>
</g>
<defs>
<clipPath id="clip0_192_8270">
<rect width="24" height="24" fill="white" transform="translate(0.5 0.144531)"/>
</clipPath>
</defs>
</svg>
