<svg width="6" height="11" viewBox="0 0 6 11" fill="none" xmlns="http://www.w3.org/2000/svg">
<path d="M0.162665 10.8171C-0.0356933 10.6206 -0.0534728 10.3122 0.113908 10.0971L0.164152 10.0409L5.04818 5.25647C5.2668 5.04212 5.62002 5.04286 5.83715 5.25794C5.94497 5.36474 6 5.5052 6 5.64493C6 5.76259 5.96179 5.87974 5.88579 5.97733L5.83566 6.03339L0.951634 10.8178C0.733013 11.0321 0.379799 11.0314 0.162665 10.8171ZM0.164226 1.24957C-0.0551387 1.03522 -0.0536514 0.68773 0.162739 0.473383C0.361778 0.276228 0.675164 0.259183 0.894406 0.42225L0.951709 0.471188L4.19533 3.64836C4.30464 3.75516 4.35967 3.89635 4.35967 4.03681C4.35967 4.17654 4.30464 4.317 4.19682 4.42381C3.99778 4.62097 3.6844 4.63801 3.46515 4.47494L3.40785 4.426L0.164226 1.24957Z" fill="#4740E3"/>
</svg>
