<svg width="24" height="25" viewBox="0 0 24 25" fill="none" xmlns="http://www.w3.org/2000/svg">
<path d="M7.539 23.0401C16.596 23.0401 21.5505 15.5356 21.5505 9.0391C21.5505 8.8291 21.5505 8.6161 21.5415 8.4061C22.5061 7.70783 23.3386 6.84333 24 5.8531C23.099 6.25038 22.1441 6.51221 21.1665 6.6301C22.1963 6.01456 22.9676 5.04605 23.337 3.9046C22.3695 4.47779 21.3105 4.88016 20.2065 5.0941C19.4643 4.30364 18.4821 3.77998 17.4121 3.60424C16.3421 3.4285 15.2441 3.61048 14.288 4.12201C13.3319 4.63353 12.5712 5.44605 12.1237 6.43369C11.6761 7.42134 11.5668 8.529 11.8125 9.5851C9.85461 9.48693 7.93922 8.9783 6.19056 8.09222C4.4419 7.20613 2.89903 5.96237 1.662 4.4416C1.03401 5.52623 0.842361 6.8092 1.12597 8.03C1.40958 9.2508 2.14718 10.3179 3.189 11.0146C2.40831 10.9881 1.64478 10.7784 0.96 10.4026V10.4701C0.961346 11.6063 1.35496 12.7072 2.07431 13.5867C2.79366 14.4663 3.79462 15.0704 4.908 15.2971C4.48539 15.4135 4.04884 15.4716 3.6105 15.4696C3.30148 15.4705 2.99307 15.4419 2.6895 15.3841C3.00418 16.3622 3.61691 17.2174 4.44187 17.8298C5.26683 18.4423 6.2627 18.7814 7.29 18.7996C5.54483 20.1703 3.3891 20.9137 1.17 20.9101C0.778981 20.9118 0.388235 20.8892 0 20.8426C2.25227 22.2785 4.86795 23.0409 7.539 23.0401Z" fill="#E6E1E5"/>
</svg>
